<svg xmlns="http://www.w3.org/2000/svg" width="24" height="28" viewBox="0 0 24 28"><path fill="currentColor" d="M20.5 13.953q0-2.516-1.359-4.609L7.36 21.11q2.141 1.391 4.641 1.391 1.734 0 3.305-.68t2.711-1.82 1.813-2.727.672-3.32zM4.891 18.625L16.688 6.844Q14.579 5.422 12 5.422q-2.312 0-4.266 1.141T4.64 9.672t-1.141 4.281q0 2.531 1.391 4.672zM24 13.953q0 2.453-.953 4.688t-2.555 3.844-3.828 2.562T12 26t-4.664-.953-3.828-2.562-2.555-3.844T0 13.953t.953-4.68 2.555-3.836 3.828-2.562T12 1.922t4.664.953 3.828 2.562 2.555 3.836.953 4.68z"/></svg>