<svg xmlns="http://www.w3.org/2000/svg" width="24" height="28" viewBox="0 0 24 28"><path fill="currentColor" d="M6.156 21.125q-.125.141-.313-.047-.203-.172-.063-.297.125-.141.313.047.187.172.063.297zm-.656-.953q.141.187 0 .297-.125.094-.266-.109t0-.281q.141-.109.266.094zm-.953-.938q-.078.109-.203.031-.156-.078-.109-.187.047-.078.203-.031.156.078.109.187zm.484.532q-.094.109-.25-.047-.141-.172-.031-.25.094-.094.25.047.141.172.031.25zm2.016 1.75q-.063.187-.297.094-.266-.063-.203-.234t.297-.109q.25.078.203.25zm.984.078q0 .172-.25.172-.266.031-.266-.172 0-.172.25-.172.266-.031.266.172zm.906-.156q.031.156-.219.219t-.281-.125.219-.234q.25-.031.281.141zM24 6.5v15q0 1.859-1.32 3.18T19.5 26H16q-.25 0-.383-.016t-.305-.078-.25-.227-.078-.43v-3.734q0-1.516-.812-2.219.891-.094 1.602-.281t1.469-.609 1.266-1.039.828-1.641.32-2.352q0-1.891-1.234-3.219.578-1.422-.125-3.187-.438-.141-1.266.172t-1.437.688l-.594.375q-1.453-.406-3-.406t-3 .406q-.25-.172-.664-.422t-1.305-.602-1.344-.211Q5 8.734 5.579 10.155q-1.234 1.328-1.234 3.219 0 1.328.32 2.344t.82 1.641 1.258 1.047 1.469.609 1.602.281q-.625.562-.766 1.609-.328.156-.703.234t-.891.078-1.023-.336-.867-.977q-.297-.5-.758-.812t-.773-.375l-.313-.047q-.328 0-.453.07t-.078.18.141.219.203.187l.109.078q.344.156.68.594t.492.797l.156.359q.203.594.688.961t1.047.469 1.086.109.867-.055l.359-.063q0 .594.008 1.609t.008 1.062q0 .344-.172.523t-.344.203-.516.023h-3.5q-1.859 0-3.18-1.32t-1.32-3.18v-15q0-1.859 1.32-3.18t3.18-1.32h15q1.859 0 3.18 1.32t1.32 3.18z"/></svg>