<svg xmlns="http://www.w3.org/2000/svg" width="28" height="28" viewBox="0 0 28 28"><path fill="currentColor" d="M4 21q0-.406-.297-.703T3 20t-.703.297T2 21t.297.703T3 22t.703-.297T4 21zm22-9q0-.797-.609-1.398T24 10h-9q0-.313.234-.758t.516-.859.516-1.062.234-1.32q0-1.047-.695-1.523T14 4.001q-.375 0-1.406 2.172-.375.688-.578 1.016-.625 1-1.75 2.266-1.109 1.266-1.578 1.656-1.078.891-2.188.891H6v10h.5q1.125 0 2.609.5t3.023 1 2.805.5q2.953 0 2.953-2.609 0-.406-.078-.875.469-.25.742-.82t.273-1.148-.281-1.078q.828-.781.828-1.859 0-.391-.156-.867t-.391-.742h5.172q.812 0 1.406-.594t.594-1.406zm2-.016q0 1.641-1.18 2.828T24 16h-2.641q-.063.969-.578 1.859.047.328.047.672 0 1.578-.938 2.781.016 2.172-1.328 3.43T15.015 26q-2.078 0-5.031-1.078Q7.422 24 6.5 24H2q-.828 0-1.414-.586T0 22V12q0-.828.586-1.414T2 10h4.5q.156 0 .336-.07t.367-.219.352-.281.375-.352.32-.336.297-.336.219-.266q1.016-1.156 1.563-2.016.203-.328.516-.969t.578-1.125.633-.984.859-.773T14.001 2q1.953 0 3.227 1.047T18.501 6q0 1.062-.344 2h5.844q1.625 0 2.812 1.188t1.188 2.797z"/></svg>