<svg xmlns="http://www.w3.org/2000/svg" width="24" height="28" viewBox="0 0 24 28"><path fill="currentColor" d="M22 15q0-1.313-.5-2.859t-1-3.031-.5-2.609v-.5H10v.5q0 .547-.187 1.055t-.578.977-.719.781-.844.766q-.141.125-.219.187-1.266 1.125-2.266 1.75-.344.219-1.062.594-.047.016-.352.164t-.562.289-.555.313-.477.336-.18.289q0 1.109.477 1.805t1.523.695q.672 0 1.32-.234t1.062-.516.859-.516.758-.234v9q0 .781.602 1.391t1.398.609q.812 0 1.406-.594t.594-1.406V18.83q.719.547 1.609.547 1.078 0 1.859-.828.5.281 1.078.281t1.148-.273.82-.742q.375.063.875.063 1.328 0 1.969-.758t.641-2.117zM20 3q0-.406-.297-.703T19 2t-.703.297T18 3t.297.703T19 4t.703-.297T20 3zm4 11.938q0 2.219-1.211 3.594t-3.398 1.359l-.078-.016q-1.188.953-2.781.953-.344 0-.672-.047-.844.469-1.859.578V24q0 1.641-1.188 2.82T9.985 28q-1.609 0-2.797-1.188T6 24v-5.844q-.844.344-2 .344-1.891 0-2.945-1.273T0 14q0-.594.273-1.086t.773-.859.984-.633 1.125-.578.969-.516q.859-.547 2.016-1.563.047-.031.266-.219t.336-.297.336-.32.352-.375.281-.352.219-.367.07-.336v-4.5q0-.828.586-1.414T10-.001h10q.828 0 1.414.586T22 1.999v4.5q0 .922.922 3.484Q24 12.952 24 14.936z"/></svg>