<svg xmlns="http://www.w3.org/2000/svg" width="24" height="28" viewBox="0 0 24 28"><path fill="currentColor" d="M10.359 6.422q-.172.016-.242.164t-.133.148q-.078.016-.078-.078 0-.187.297-.234h.156zm1.36.219q-.063.016-.18-.102t-.273-.07q.375-.172.5.031.047.094-.047.141zm-5.485 6.671q-.063-.016-.094.047t-.07.195-.086.211-.156.203q-.109.156-.016.187.063.016.195-.109t.195-.281q.016-.047.031-.109t.031-.094.023-.07.008-.063v-.047l-.016-.039-.047-.031zm13.36 5.61q0-.281-.859-.656l.117-.43q.054-.196.078-.406t.047-.336.008-.352-.016-.305-.055-.344-.063-.32-.078-.391-.086-.414q-.156-.75-.734-1.609t-1.125-1.172q.375.313.891 1.297 1.359 2.531.844 4.344-.172.625-.781.656-.484.063-.602-.289t-.125-1.305-.18-1.672q-.141-.609-.305-1.078t-.305-.711-.242-.383-.203-.234-.117-.109q-.219-.969-.484-1.609t-.461-.875-.367-.516-.234-.625q-.063-.328.094-.836t.07-.773-.695-.391q-.234-.047-.695-.281t-.555-.25q-.125-.016-.172-.406t.125-.797.562-.422q.578-.047.797.469t.063.906q-.172.297-.031.414t.469.008q.203-.063.203-.562v-.578q-.078-.469-.211-.781t-.328-.477-.367-.234-.422-.117q-1.672.125-1.391 2.094 0 .234-.016.234-.141-.141-.461-.164t-.516.008-.242-.078q.016-.891-.25-1.406t-.703-.531q-.422-.016-.648.43t-.258.93q-.016.234.055.578t.203.586.242.211q.156-.047.25-.219.063-.141-.109-.125-.109 0-.242-.227t-.148-.523q-.016-.344.141-.578t.531-.219q.266 0 .422.328t.148.609-.023.344q-.344.234-.484.453-.125.187-.43.367t-.32.195q-.203.219-.242.422t.117.281q.219.125.391.305t.25.297.289.203.555.102q.734.031 1.594-.234.031-.016.359-.109t.539-.164.461-.203.328-.273q.141-.219.313-.125.078.047.102.133t-.047.187-.258.148q-.313.094-.883.336t-.711.305q-.688.297-1.094.359-.391.078-1.234-.031-.156-.031-.141.031t.266.297q.391.359 1.047.344.266-.016.562-.109t.562-.219.523-.273.469-.266.383-.187.273-.039.133.172q0 .031-.016.07t-.063.078-.094.07-.133.078-.141.07-.156.078-.148.07q-.438.219-1.055.688t-1.039.672-.766.016q-.328-.172-.984-1.141-.344-.484-.391-.344-.016.047-.016.156 0 .391-.234.883t-.461.867-.328.906.18.984q-.359.094-.977 1.406t-.742 2.203q-.031.281-.023 1.078t-.086.922q-.125.375-.453.047-.5-.484-.562-1.469-.031-.438.063-.875.063-.297-.016-.281l-.063.078q-.562 1.016.156 2.594.078.187.391.438t.375.313q.313.359 1.625 1.414t1.453 1.195q.25.234.273.594t-.219.672-.711.359q.125.234.453.695t.438.844.109 1.102q.719-.375.109-1.437-.063-.125-.164-.25t-.148-.187-.031-.094q.047-.078.203-.148t.313.039q.719.812 2.594.562 2.078-.234 2.766-1.359.359-.594.531-.469.187.094.156.812-.016.391-.359 1.437-.141.359-.094.586t.375.242q.047-.297.227-1.203t.211-1.406q.031-.328-.102-1.148t-.117-1.516.359-1.102q.234-.281.797-.281.016-.578.539-.828t1.133-.164.938.352zM9.781 6q.047-.266-.039-.469t-.18-.234q-.141-.031-.141.109.031.078.078.094.156 0 .109.234-.047.313.125.313.047 0 .047-.047zm6.547 3.078q-.031-.125-.102-.18t-.203-.078-.227-.086q-.078-.047-.148-.125t-.109-.125-.086-.102-.063-.063-.063.023q-.219.25.109.68t.609.492q.141.016.227-.125t.055-.313zM13.547 5.75q0-.172-.078-.305t-.172-.195-.141-.047q-.219.016-.109.109l.063.031q.219.063.281.484 0 .047.125-.031zm.844-3.641q0-.031-.039-.078t-.141-.109-.148-.094q-.234-.234-.375-.234-.141.016-.18.117t-.016.203-.008.195q-.016.063-.094.164t-.094.141.047.133q.063.047.125 0t.172-.141.234-.141q.016-.016.141-.016t.234-.031.141-.109zm8.828 20.954q.313.187.484.383t.187.375-.039.352-.242.344-.367.305-.469.289-.492.258-.5.242-.422.203q-.594.297-1.336.875t-1.18 1q-.266.25-1.062.305t-1.391-.227q-.281-.141-.461-.367t-.258-.398-.344-.305-.734-.148q-.688-.016-2.031-.016-.297 0-.891.023t-.906.039q-.688.016-1.242.234t-.836.469-.68.445-.836.18q-.453-.016-1.734-.484t-2.281-.672q-.297-.063-.797-.148t-.781-.141-.617-.148-.523-.227-.266-.305q-.156-.359.109-1.039t.281-.852q.016-.25-.063-.625t-.156-.664-.07-.57.164-.422q.219-.187.891-.219t.938-.187q.469-.281.656-.547t.187-.797q.328 1.141-.5 1.656-.5.313-1.297.234-.531-.047-.672.156-.203.234.078.891.031.094.125.281t.133.281.07.266.016.344q0 .234-.266.766t-.219.75q.047.266.578.406.313.094 1.32.289t1.555.32q.375.094 1.156.344t1.289.359.867.063q.672-.094 1.008-.438t.359-.75-.117-.914-.297-.812-.313-.57q-1.891-2.969-2.641-3.781-1.062-1.156-1.766-.625-.172.141-.234-.234-.047-.25-.031-.594.016-.453.156-.812t.375-.734.344-.656q.125-.328.414-1.125t.461-1.219.469-.953.609-.844q1.719-2.234 1.937-3.047-.187-1.75-.25-4.844-.031-1.406.375-2.367T9.856.33q.609-.328 1.625-.328.828-.016 1.656.211t1.391.648q.891.656 1.43 1.898t.461 2.305q-.078 1.484.469 3.344.531 1.766 2.078 3.406.859.922 1.555 2.547t.93 2.984q.125.766.078 1.32t-.187.867-.313.344q-.156.031-.367.297t-.422.555-.633.523-.953.219q-.281-.016-.492-.078t-.352-.211-.211-.242-.18-.32-.141-.305q-.344-.578-.641-.469t-.438.766.109 1.516q.313 1.094.016 3.047-.156 1.016.281 1.57t1.141.516 1.328-.555q.922-.766 1.398-1.039t1.617-.664q.828-.281 1.203-.57t.289-.539-.391-.445-.805-.367q-.516-.172-.773-.75t-.234-1.133.242-.742q.016.484.125.883t.227.633.32.445.328.297.336.203.258.148z"/></svg>