<svg xmlns="http://www.w3.org/2000/svg" width="24" height="28" viewBox="0 0 24 28"><path fill="currentColor" d="M20 18.641q0-.172-.031-.25-.047-.125-.602-.461t-1.383-.773l-.828-.453q-.078-.047-.297-.203t-.391-.234-.328-.078q-.281 0-.734.508t-.891 1.023-.688.516q-.109 0-.258-.055t-.242-.102-.266-.148-.219-.133q-1.547-.859-2.664-1.977t-1.977-2.664q-.031-.047-.133-.219t-.148-.266-.102-.242-.055-.258q0-.203.32-.523t.703-.602.703-.617.32-.57q0-.156-.078-.328t-.234-.391-.203-.297q-.047-.094-.234-.445t-.391-.711-.414-.742-.391-.633-.258-.281-.25-.031q-.75 0-1.578.344-.719.328-1.25 1.477t-.531 2.039q0 .25.039.531t.078.477.141.516.156.461.195.516.172.469q.938 2.562 3.383 5.008t5.008 3.383q.094.031.469.172t.516.195.461.156.516.141.477.078.531.039q.891 0 2.039-.531t1.477-1.25q.344-.828.344-1.578zM24 6.5v15q0 1.859-1.32 3.18T19.5 26h-15q-1.859 0-3.18-1.32T0 21.5v-15q0-1.859 1.32-3.18T4.5 2h15q1.859 0 3.18 1.32T24 6.5z"/></svg>