<svg xmlns="http://www.w3.org/2000/svg" width="24" height="28" viewBox="0 0 24 28"><path fill="currentColor" d="M14 21.5v-3q0-.219-.141-.359T13.5 18h-3q-.219 0-.359.141T10 18.5v3q0 .219.141.359T10.5 22h3q.219 0 .359-.141T14 21.5zM18 11q0-1.375-.867-2.547T14.969 6.64t-2.656-.641q-3.797 0-5.797 3.328-.234.375.125.656l2.063 1.563q.109.094.297.094.25 0 .391-.187.828-1.062 1.344-1.437.531-.375 1.344-.375.75 0 1.336.406t.586.922q0 .594-.313.953t-1.062.703q-.984.438-1.805 1.352t-.82 1.961v.562q0 .219.141.359t.359.141h3q.219 0 .359-.141t.141-.359q0-.297.336-.773t.852-.773q.5-.281.766-.445t.719-.547.695-.75.438-.945.195-1.266zm6 3q0 3.266-1.609 6.023t-4.367 4.367-6.023 1.609-6.023-1.609-4.367-4.367T.002 14t1.609-6.023T5.978 3.61t6.023-1.609 6.023 1.609 4.367 4.367T24 14z"/></svg>