<svg xmlns="http://www.w3.org/2000/svg" width="24" height="28" viewBox="0 0 24 28"><path fill="currentColor" d="M23.609 16.5q0 .078-.016.109-1 4.188-4.188 6.789T11.936 26q-2.281 0-4.414-.859t-3.805-2.453l-2.016 2.016q-.297.297-.703.297t-.703-.297-.297-.703v-7q0-.406.297-.703t.703-.297h7q.406 0 .703.297t.297.703-.297.703L6.56 19.845q1.109 1.031 2.516 1.594t2.922.562q2.094 0 3.906-1.016t2.906-2.797q.172-.266.828-1.828.125-.359.469-.359h3q.203 0 .352.148t.148.352zM24 4v7q0 .406-.297.703T23 12h-7q-.406 0-.703-.297T15 11t.297-.703l2.156-2.156Q15.141 6 12 6 9.906 6 8.094 7.016T5.188 9.813q-.172.266-.828 1.828-.125.359-.469.359H.782q-.203 0-.352-.148T.282 11.5v-.109q1.016-4.188 4.219-6.789T12.001 2q2.281 0 4.438.867t3.828 2.445l2.031-2.016q.297-.297.703-.297t.703.297.297.703z"/></svg>