<svg xmlns="http://www.w3.org/2000/svg" width="24" height="28" viewBox="0 0 24 28"><path fill="currentColor" d="M24 4v7q0 .406-.297.703T23 12h-7q-.656 0-.922-.625-.266-.609.219-1.078l2.156-2.156Q15.141 6 12 6q-1.625 0-3.102.633T6.343 8.344t-1.711 2.555-.633 3.102.633 3.102 1.711 2.555 2.555 1.711 3.102.633q1.859 0 3.516-.812t2.797-2.297q.109-.156.359-.187.219 0 .391.141l2.141 2.156q.141.125.148.32t-.117.352q-1.703 2.063-4.125 3.195t-5.109 1.133q-2.438 0-4.656-.953t-3.828-2.562T.955 18.66t-.953-4.656.953-4.656T3.517 5.52t3.828-2.562 4.656-.953q2.297 0 4.445.867t3.82 2.445l2.031-2.016q.453-.484 1.094-.219.609.266.609.922z"/></svg>