<svg xmlns="http://www.w3.org/2000/svg" width="16" height="28" viewBox="0 0 16 28"><path fill="currentColor" d="M9.297 15q0 .203-.156.359L1.86 22.64q-.156.156-.359.156t-.359-.156l-.781-.781q-.156-.156-.156-.359t.156-.359L6.502 15 .361 8.859Q.205 8.703.205 8.5t.156-.359l.781-.781q.156-.156.359-.156t.359.156l7.281 7.281q.156.156.156.359zm6 0q0 .203-.156.359L7.86 22.64q-.156.156-.359.156t-.359-.156l-.781-.781q-.156-.156-.156-.359t.156-.359L12.502 15 6.361 8.859q-.156-.156-.156-.359t.156-.359l.781-.781q.156-.156.359-.156t.359.156l7.281 7.281q.156.156.156.359z"/></svg>