<svg xmlns="http://www.w3.org/2000/svg" width="24" height="28" viewBox="0 0 24 28"><path fill="currentColor" d="M20 15v-2q0-.406-.297-.703T19 12h-7.844l2.953-2.953q.297-.297.297-.703t-.297-.703l-1.422-1.422q-.281-.281-.703-.281t-.703.281l-7.078 7.078q-.281.281-.281.703t.281.703l7.078 7.078q.281.281.703.281t.703-.281l1.422-1.422q.281-.281.281-.703t-.281-.703L11.156 16H19q.406 0 .703-.297T20 15zm4-1q0 3.266-1.609 6.023t-4.367 4.367-6.023 1.609-6.023-1.609-4.367-4.367T.002 14t1.609-6.023T5.978 3.61t6.023-1.609 6.023 1.609 4.367 4.367T24 14z"/></svg>