<svg xmlns="http://www.w3.org/2000/svg" width="26" height="28" viewBox="0 0 26 28"><path fill="currentColor" d="M24 4q.812 0 1.406.594T26 6v20q0 .812-.594 1.406T24 28H2q-.812 0-1.406-.594T0 26V6q0-.812.594-1.406T2 4h2V2.5q0-1.031.734-1.766T6.5 0h1q1.031 0 1.766.734T10 2.5V4h6V2.5q0-1.031.734-1.766T18.5 0h1q1.031 0 1.766.734T22 2.5V4h2zm-6-1.5V7q0 .219.141.359t.359.141h1q.219 0 .359-.141T20 7V2.5q0-.219-.141-.359T19.5 2h-1q-.219 0-.359.141T18 2.5zm-12 0V7q0 .219.141.359T6.5 7.5h1q.219 0 .359-.141T8 7V2.5q0-.219-.141-.359T7.5 2h-1q-.219 0-.359.141T6 2.5zM24 26V10H2v16h22zm-10-9h3.5q.219 0 .359.141T18 17.5v1q0 .219-.141.359T17.5 19H14v3.5q0 .219-.141.359T13.5 23h-1q-.219 0-.359-.141T12 22.5V19H8.5q-.219 0-.359-.141T8 18.5v-1q0-.219.141-.359T8.5 17H12v-3.5q0-.219.141-.359T12.5 13h1q.219 0 .359.141T14 13.5V17z"/></svg>