<svg xmlns="http://www.w3.org/2000/svg" width="30" height="28" viewBox="0 0 30 28"><path fill="currentColor" d="M9.641 21.859l-.781.781q-.156.156-.359.156t-.359-.156L.861 15.359Q.705 15.203.705 15t.156-.359L8.142 7.36q.156-.156.359-.156t.359.156l.781.781q.156.156.156.359t-.156.359L3.5 15l6.141 6.141q.156.156.156.359t-.156.359zm9.234-16.672l-5.828 20.172q-.063.203-.242.305t-.367.039l-.969-.266q-.203-.063-.305-.242t-.039-.383L16.953 4.64q.063-.203.242-.305t.367-.039l.969.266q.203.063.305.242t.039.383zm10.266 10.172L21.86 22.64q-.156.156-.359.156t-.359-.156l-.781-.781q-.156-.156-.156-.359t.156-.359L26.502 15l-6.141-6.141q-.156-.156-.156-.359t.156-.359l.781-.781q.156-.156.359-.156t.359.156l7.281 7.281q.156.156.156.359t-.156.359z"/></svg>