<svg xmlns="http://www.w3.org/2000/svg" width="24" height="28" viewBox="0 0 24 28"><path fill="currentColor" d="M16 14q0-1.656-1.172-2.828T12 10t-2.828 1.172T8 14t1.172 2.828T12 18t2.828-1.172T16 14zm8-1.703v3.469q0 .187-.125.359t-.313.203l-2.891.438q-.297.844-.609 1.422.547.781 1.672 2.156.156.187.156.391t-.141.359q-.422.578-1.547 1.687t-1.469 1.109q-.187 0-.406-.141l-2.156-1.687q-.688.359-1.422.594-.25 2.125-.453 2.906-.109.438-.562.438h-3.469q-.219 0-.383-.133t-.18-.336l-.438-2.875q-.766-.25-1.406-.578L5.655 23.75q-.156.141-.391.141-.219 0-.391-.172-1.969-1.781-2.578-2.625-.109-.156-.109-.359 0-.187.125-.359.234-.328.797-1.039t.844-1.102q-.422-.781-.641-1.547l-2.859-.422q-.203-.031-.328-.195t-.125-.367v-3.469q0-.187.125-.359t.297-.203l2.906-.438q.219-.719.609-1.437-.625-.891-1.672-2.156-.156-.187-.156-.375 0-.156.141-.359.406-.562 1.539-1.68t1.477-1.117q.203 0 .406.156l2.156 1.672q.688-.359 1.422-.594.25-2.125.453-2.906.109-.437.562-.437h3.469q.219 0 .383.133t.18.336l.438 2.875q.766.25 1.406.578l2.219-1.672q.141-.141.375-.141.203 0 .391.156 2.016 1.859 2.578 2.656.109.125.109.344 0 .187-.125.359-.234.328-.797 1.039t-.844 1.102q.406.781.641 1.531l2.859.438q.203.031.328.195t.125.367z"/></svg>