<svg xmlns="http://www.w3.org/2000/svg" width="28" height="28" viewBox="0 0 28 28"><path fill="currentColor" d="M15 14q.406 0 .703.297T16 15t-.297.703T15 16t-.703-.297T14 15t.297-.703T15 14zm4.688 1l7.922 6.219q.438.313.391.875-.078.547-.547.797l-2 1q-.203.109-.453.109-.266 0-.484-.125l-10.781-6.047-1.719 1.031q-.125.063-.187.078.219.766.156 1.516-.109 1.203-.875 2.305t-2.063 1.93q-2.063 1.313-4.328 1.313-2.125 0-3.469-1.219-1.406-1.313-1.234-3.234.109-1.188.875-2.297t2.047-1.937q2.063-1.313 4.344-1.313 1.297 0 2.359.484.141-.203.344-.344L11.892 15l-1.906-1.141q-.203-.141-.344-.344-1.062.484-2.359.484-2.281 0-4.344-1.313-1.281-.828-2.047-1.937T.017 8.452q-.078-.922.242-1.766t.992-1.453Q2.579 3.999 4.72 3.999q2.266 0 4.328 1.313 1.297.812 2.063 1.922t.875 2.312q.063.75-.156 1.516.063.016.187.078l1.719 1.031 10.781-6.047q.219-.125.484-.125.25 0 .453.109l2 1q.469.25.547.797.047.562-.391.875zM9.047 10.938q.719-.656.328-1.687T7.719 7.423q-1.437-.922-3-.922-1.156 0-1.766.562-.719.656-.328 1.687t1.656 1.828q1.437.922 3 .922 1.156 0 1.766-.562zm-1.328 11.64q1.266-.797 1.656-1.828t-.328-1.687q-.609-.562-1.766-.562-1.563 0-3 .922-1.266.797-1.656 1.828t.328 1.687q.609.562 1.766.562 1.563 0 3-.922zM10.5 13l1.5.906v-.172q0-.562.516-.875l.219-.125L11.501 12l-.406.406q-.047.047-.156.172t-.187.187q-.031.031-.063.055t-.047.039zm3.5 3.5l1.5.5L27 8l-2-1-12 6.734V15.5L10.5 17l.141.125q.031.031.109.094.063.063.172.187t.172.187l.406.406zM25 23l2-1-8.125-6.375-2.766 2.156q-.031.047-.203.109z"/></svg>