<svg xmlns="http://www.w3.org/2000/svg" width="24" height="28" viewBox="0 0 24 28"><path fill="currentColor" d="M12 2q3.266 0 6.023 1.609t4.367 4.367 1.609 6.023-1.609 6.023-4.367 4.367T12 25.998t-6.023-1.609-4.367-4.367-1.609-6.023T1.61 7.976t4.367-4.367T12 2zm2 19.484v-2.969q0-.219-.141-.367T13.515 18h-3q-.203 0-.359.156t-.156.359v2.969q0 .203.156.359t.359.156h3q.203 0 .344-.148t.141-.367zm-.031-5.375l.281-9.703q0-.187-.156-.281Q13.938 6 13.719 6h-3.437q-.219 0-.375.125-.156.094-.156.281l.266 9.703q0 .156.156.273t.375.117h2.891q.219 0 .367-.117t.164-.273z"/></svg>