<svg xmlns="http://www.w3.org/2000/svg" width="24" height="28" viewBox="0 0 24 28"><path fill="currentColor" d="M22.937 7.438q.219.219.438.562H16V.625q.344.219.562.438zM15.5 10H24v16.5q0 .625-.438 1.062T22.5 28h-21q-.625 0-1.062-.438T0 26.5v-25Q0 .875.438.438T1.5 0H14v8.5q0 .625.438 1.062T15.5 10zM18 21.5v-1q0-.219-.141-.359T17.5 20h-11q-.219 0-.359.141T6 20.5v1q0 .219.141.359T6.5 22h11q.219 0 .359-.141T18 21.5zm0-4v-1q0-.219-.141-.359T17.5 16h-11q-.219 0-.359.141T6 16.5v1q0 .219.141.359T6.5 18h11q.219 0 .359-.141T18 17.5zm0-4v-1q0-.219-.141-.359T17.5 12h-11q-.219 0-.359.141T6 12.5v1q0 .219.141.359T6.5 14h11q.219 0 .359-.141T18 13.5z"/></svg>