<svg xmlns="http://www.w3.org/2000/svg" width="28" height="28" viewBox="0 0 28 28"><path fill="currentColor" d="M14.109 28q-4.422 0-7.883-2.352t-5.148-6.227Q.172 17.374.031 14.718t.406-5.195 1.734-4.875T4.968.859L4.796 5.25q.172-.219 1.062-.242t1.094.242q.656-1.266 2.508-2.156t3.664-.922q-.844.703-1.867 2.32t-.914 2.555q.391.125.977.211t.984.117 1.062.063.789.047q.234.078.148.711t-.477 1.18q-.078.109-.258.289t-.883.555-1.578.531l.234 2.953-2.172-1.047q-.281.672-.117 1.273t.562 1.039 1.023.648 1.266.102q.797-.141 1.531-.539t1.305-.703 1.148-.273q.953.063 1.398.516t.305 1.016q-.016.031-.039.086t-.133.195-.281.242-.492.164-.727.016q-.938 1.484-2.258 2.117t-3.273.461q1.156.953 2.539 1.289t2.633.094 2.414-.812 2-1.367 1.258-1.625q.672-1.422.609-3.008t-.586-2.945-1.227-1.953q1.359.594 2.141 1.242t1.203 1.758q.234-2.656-.898-5.359T19.2 1.893q4.141 1.203 6.438 4.367t2.359 8.086q.031 1.984-.633 3.984t-1.93 3.719-2.953 3.063-3.867 2.117-4.508.773z"/></svg>