<svg xmlns="http://www.w3.org/2000/svg" width="24" height="28" viewBox="0 0 24 28"><path fill="currentColor" d="M6 24h12v-6H6v6zm14 0h2V10q0-.219-.156-.602t-.313-.539L17.14 4.468q-.156-.156-.531-.313T16 3.999v6.5q0 .625-.438 1.062t-1.062.438h-9q-.625 0-1.062-.438T4 10.499v-6.5H2v20h2v-6.5q0-.625.438-1.062t1.062-.438h13q.625 0 1.062.438T20 17.499v6.5zM14 9.5v-5q0-.203-.148-.352T13.5 4h-3q-.203 0-.352.148T10 4.5v5q0 .203.148.352T10.5 10h3q.203 0 .352-.148T14 9.5zm10 .5v14.5q0 .625-.438 1.062T22.5 26h-21q-.625 0-1.062-.438T0 24.5v-21q0-.625.438-1.062T1.5 2H16q.625 0 1.375.313t1.188.75l4.375 4.375q.438.438.75 1.188t.313 1.375z"/></svg>