<svg xmlns="http://www.w3.org/2000/svg" width="28" height="28" viewBox="0 0 28 28"><path fill="currentColor" d="M9.297 23.656q0-1.563-2.578-1.563-2.469 0-2.469 1.625 0 1.578 2.688 1.578 2.359 0 2.359-1.641zm-.922-11.797q0-.953-.469-1.594t-1.391-.641q-1.937 0-1.937 2.266 0 2.109 1.937 2.109 1.859 0 1.859-2.141zm4.203-5.062v3.156q-.562.187-1.234.344.25.672.25 1.313 0 1.984-1.141 3.383t-3.078 1.758q-.625.125-.93.422t-.305.906q0 .484.352.805t.906.5 1.227.344 1.344.398 1.227.586.906 1 .352 1.539q0 4.75-5.672 4.75-1.078 0-2.031-.195t-1.813-.641-1.367-1.281-.508-1.992q0-2.578 2.844-3.516v-.063q-1.047-.641-1.047-1.969 0-1.703.984-2.141v-.063q-1.125-.375-1.867-1.695t-.742-2.586q0-2.172 1.484-3.617t3.672-1.445q1.5 0 2.781.734 1.531 0 3.406-.734zm4.969 13.766h-3.469q.063-.703.063-2.094V8.953q0-1.469-.063-2h3.469q-.063.516-.063 1.937v9.578q0 1.391.063 2.094zm9.391-3.469v3.063q-1.109.609-2.719.609-.969 0-1.672-.313t-1.094-.781-.617-1.219-.289-1.437-.063-1.609V9.923h.031V9.86q-.109 0-.297-.016t-.281-.016q-.328 0-.922.094V6.953h1.5V5.765q0-.844-.094-1.391h3.547q-.094.641-.094 2.578h2.672v2.969q-.234 0-.68-.031t-.664-.031h-1.328v5.703q0 2.047 1.359 2.047.953 0 1.703-.516zm-9-14.797q0 .906-.609 1.586t-1.5.68q-.906 0-1.531-.68t-.625-1.586q0-.922.617-1.609T15.829 0q.906 0 1.508.695t.602 1.602z"/></svg>