<svg xmlns="http://www.w3.org/2000/svg" width="25" height="28" viewBox="0 0 25 28"><path fill="currentColor" d="M13.75 2q-.719 0-1.234.516T12 3.75V14h-.5V5.75q0-.719-.516-1.234T9.75 4t-1.234.516T8 5.75V18l-2.406-3.203Q5 14 4 14q-.828 0-1.414.586T2 16q0 .672.406 1.203l6 8Q9 26 10 26h10.75q.531 0 .953-.344t.531-.875l1.188-6.328q.078-.5.078-.922V9.75q0-.719-.516-1.234T21.75 8t-1.234.516T20 9.75V14h-.5V5.75q0-.719-.516-1.234T17.75 4t-1.234.516T16 5.75V14h-.5V3.75q0-.719-.516-1.234T13.75 2zm0-2q1.062 0 1.961.555t1.383 1.508Q17.391 2 17.75 2q1.547 0 2.648 1.102T21.5 5.75v.266q1.641-.094 2.82 1T25.5 9.75v7.781q0 .625-.125 1.297l-1.188 6.312q-.219 1.234-1.195 2.047t-2.242.812H10q-.938 0-1.789-.43t-1.414-1.164l-6-8Q0 17.343 0 15.999q0-1.656 1.172-2.828T4 11.999q1.219 0 2 .531V5.749q0-1.547 1.102-2.648T9.75 1.999q.359 0 .656.063.484-.953 1.383-1.508t1.961-.555z"/></svg>