<svg xmlns="http://www.w3.org/2000/svg" width="30" height="28" viewBox="0 0 30 28"><path fill="currentColor" d="M6 18.25v1.5q0 .25-.25.25h-1.5Q4 20 4 19.75v-1.5q0-.25.25-.25h1.5q.25 0 .25.25zm2-4v1.5q0 .25-.25.25h-3.5Q4 16 4 15.75v-1.5q0-.25.25-.25h3.5q.25 0 .25.25zm-2-4v1.5q0 .25-.25.25h-1.5Q4 12 4 11.75v-1.5q0-.25.25-.25h1.5q.25 0 .25.25zm16 8v1.5q0 .25-.25.25H8.25Q8 20 8 19.75v-1.5q0-.25.25-.25h13.5q.25 0 .25.25zm-10-4v1.5q0 .25-.25.25h-1.5q-.25 0-.25-.25v-1.5q0-.25.25-.25h1.5q.25 0 .25.25zm-2-4v1.5q0 .25-.25.25h-1.5Q8 12 8 11.75v-1.5q0-.25.25-.25h1.5q.25 0 .25.25zm6 4v1.5q0 .25-.25.25h-1.5q-.25 0-.25-.25v-1.5q0-.25.25-.25h1.5q.25 0 .25.25zm-2-4v1.5q0 .25-.25.25h-1.5q-.25 0-.25-.25v-1.5q0-.25.25-.25h1.5q.25 0 .25.25zm6 4v1.5q0 .25-.25.25h-1.5q-.25 0-.25-.25v-1.5q0-.25.25-.25h1.5q.25 0 .25.25zm6 4v1.5q0 .25-.25.25h-1.5q-.25 0-.25-.25v-1.5q0-.25.25-.25h1.5q.25 0 .25.25zm-8-8v1.5q0 .25-.25.25h-1.5q-.25 0-.25-.25v-1.5q0-.25.25-.25h1.5q.25 0 .25.25zm4 0v1.5q0 .25-.25.25h-1.5q-.25 0-.25-.25v-1.5q0-.25.25-.25h1.5q.25 0 .25.25zm4 0v5.5q0 .25-.25.25h-3.5q-.25 0-.25-.25v-1.5q0-.25.25-.25H24v-3.75q0-.25.25-.25h1.5q.25 0 .25.25zM28 22V8H2v14h26zm2-14v14q0 .828-.586 1.414T28 24H2q-.828 0-1.414-.586T0 22V8q0-.828.586-1.414T2 6h26q.828 0 1.414.586T30 8z"/></svg>