<svg xmlns="http://www.w3.org/2000/svg" width="24" height="28" viewBox="0 0 24 28"><path fill="currentColor" d="M6.312 17.313l2.375 2.375-.812.812H7V19H5.5v-.875zm6.469-6.094q.219.203-.047.469l-4.547 4.547q-.266.266-.469.047-.219-.203.047-.469l4.547-4.547q.266-.266.469-.047zM8.5 22l8.5-8.5L12.5 9 4 17.5V22h4.5zm9.5-9.5l1.437-1.437q.438-.438.438-1.062t-.438-1.062l-2.375-2.375q-.438-.438-1.062-.438t-1.062.438l-1.437 1.437zm6-6v15q0 1.859-1.32 3.18T19.5 26h-15q-1.859 0-3.18-1.32T0 21.5v-15q0-1.859 1.32-3.18T4.5 2h15q1.859 0 3.18 1.32T24 6.5z"/></svg>