<svg xmlns="http://www.w3.org/2000/svg" width="22" height="28" viewBox="0 0 22 28"><path fill="currentColor" d="M18 12.5v1q0 .219-.141.359T17.5 14H12v5.5q0 .219-.141.359T11.5 20h-1q-.219 0-.359-.141T10 19.5V14H4.5q-.219 0-.359-.141T4 13.5v-1q0-.219.141-.359T4.5 12H10V6.5q0-.219.141-.359T10.5 6h1q.219 0 .359.141T12 6.5V12h5.5q.219 0 .359.141T18 12.5zm2 7v-13q0-1.031-.734-1.766T17.5 4h-13q-1.031 0-1.766.734T2 6.5v13q0 1.031.734 1.766T4.5 22h13q1.031 0 1.766-.734T20 19.5zm2-13v13q0 1.859-1.32 3.18T17.5 24h-13q-1.859 0-3.18-1.32T0 19.5v-13q0-1.859 1.32-3.18T4.5 2h13q1.859 0 3.18 1.32T22 6.5z"/></svg>