<svg xmlns="http://www.w3.org/2000/svg" width="26" height="28" viewBox="0 0 26 28"><path fill="currentColor" d="M12 15v6q0 1.25-.875 2.125T9 24H3q-1.25 0-2.125-.875T0 21V10q0-1.625.633-3.102t1.711-2.555 2.555-1.711 3.102-.633h1q.406 0 .703.297t.297.703v2q0 .406-.297.703t-.703.297h-1q-1.656 0-2.828 1.172T4.001 9.999v.5q0 .625.438 1.062t1.062.438h3.5q1.25 0 2.125.875t.875 2.125zm14 0v6q0 1.25-.875 2.125T23 24h-6q-1.25 0-2.125-.875T14 21V10q0-1.625.633-3.102t1.711-2.555 2.555-1.711 3.102-.633h1q.406 0 .703.297t.297.703v2q0 .406-.297.703t-.703.297h-1q-1.656 0-2.828 1.172t-1.172 2.828v.5q0 .625.438 1.062t1.062.438h3.5q1.25 0 2.125.875t.875 2.125z"/></svg>