<svg xmlns="http://www.w3.org/2000/svg" width="24" height="28" viewBox="0 0 24 28"><path fill="currentColor" d="M8 20q0-.828-.586-1.414T6 18t-1.414.586T4 20t.586 1.414T6 22t1.414-.586T8 20zm5.484 1.469q-.203-3.625-2.766-6.188T4.53 12.515q-.219-.016-.375.141t-.156.359v2q0 .203.133.344t.336.156q2.406.172 4.125 1.891t1.891 4.125q.016.203.156.336t.344.133h2q.203 0 .359-.156t.141-.375zm6 .015q-.078-2.406-.875-4.648t-2.18-4.062-3.203-3.203-4.062-2.18-4.648-.875q-.219-.016-.359.141-.156.156-.156.359v2q0 .203.141.344t.344.156q3.187.109 5.906 1.742t4.352 4.352 1.742 5.906q.016.203.156.344t.344.141h2q.203 0 .359-.156.172-.141.141-.359zM24 6.5v15q0 1.859-1.32 3.18T19.5 26h-15q-1.859 0-3.18-1.32T0 21.5v-15q0-1.859 1.32-3.18T4.5 2h15q1.859 0 3.18 1.32T24 6.5z"/></svg>