<svg xmlns="http://www.w3.org/2000/svg" width="26" height="28" viewBox="0 0 26 28"><path fill="currentColor" d="M8 21.5v-3q0-.219-.141-.359T7.5 18h-5q-.219 0-.359.141T2 18.5v3q0 .219.141.359T2.5 22h5q.219 0 .359-.141T8 21.5zm0-6v-3q0-.219-.141-.359T7.5 12h-5q-.219 0-.359.141T2 12.5v3q0 .219.141.359T2.5 16h5q.219 0 .359-.141T8 15.5zm8 6v-3q0-.219-.141-.359T15.5 18h-5q-.219 0-.359.141T10 18.5v3q0 .219.141.359T10.5 22h5q.219 0 .359-.141T16 21.5zm-8-12v-3q0-.219-.141-.359T7.5 6h-5q-.219 0-.359.141T2 6.5v3q0 .219.141.359T2.5 10h5q.219 0 .359-.141T8 9.5zm8 6v-3q0-.219-.141-.359T15.5 12h-5q-.219 0-.359.141T10 12.5v3q0 .219.141.359T10.5 16h5q.219 0 .359-.141T16 15.5zm8 6v-3q0-.219-.141-.359T23.5 18h-5q-.219 0-.359.141T18 18.5v3q0 .219.141.359T18.5 22h5q.219 0 .359-.141T24 21.5zm-8-12v-3q0-.219-.141-.359T15.5 6h-5q-.219 0-.359.141T10 6.5v3q0 .219.141.359T10.5 10h5q.219 0 .359-.141T16 9.5zm8 6v-3q0-.219-.141-.359T23.5 12h-5q-.219 0-.359.141T18 12.5v3q0 .219.141.359T18.5 16h5q.219 0 .359-.141T24 15.5zm0-6v-3q0-.219-.141-.359T23.5 6h-5q-.219 0-.359.141T18 6.5v3q0 .219.141.359T18.5 10h5q.219 0 .359-.141T24 9.5zm2-5v17q0 1.031-.734 1.766T23.5 24h-21q-1.031 0-1.766-.734T0 21.5v-17q0-1.031.734-1.766T2.5 2h21q1.031 0 1.766.734T26 4.5z"/></svg>