<svg xmlns="http://www.w3.org/2000/svg" width="26" height="28" viewBox="0 0 26 28"><path fill="currentColor" d="M12 16v6q0 .812-.594 1.406T10 24H2q-.812 0-1.406-.594T0 22v-6q0-.812.594-1.406T2 14h8q.812 0 1.406.594T12 16zm0-12v6q0 .812-.594 1.406T10 12H2q-.812 0-1.406-.594T0 10V4q0-.812.594-1.406T2 2h8q.812 0 1.406.594T12 4zm14 12v6q0 .812-.594 1.406T24 24h-8q-.812 0-1.406-.594T14 22v-6q0-.812.594-1.406T16 14h8q.812 0 1.406.594T26 16zm0-12v6q0 .812-.594 1.406T24 12h-8q-.812 0-1.406-.594T14 10V4q0-.812.594-1.406T16 2h8q.812 0 1.406.594T26 4z"/></svg>