<svg xmlns="http://www.w3.org/2000/svg" width="25" height="28" viewBox="0 0 25 28"><path fill="currentColor" d="M4 9q0 .406-.297.703T3 10q-.422 0-.711-.297T2 9q0-.422.289-.711T3 8q.406 0 .703.289T4 9zm2.5 8V7q0-.406-.297-.703T5.5 6H1q-.406 0-.703.297T0 7v10q0 .406.297.703T1 18h4.5q.406 0 .703-.297T6.5 17zm17.641-2.328Q25 15.625 25 17q-.016 1.219-.898 2.109T22 20h-4.328q.063.219.125.375t.172.344.156.281q.281.578.422.891t.297.914T19 24q0 .375-.008.609t-.078.703-.187.781-.375.703-.625.633-.938.406-1.289.164q-.406 0-.703-.297-.313-.313-.531-.781t-.305-.812-.195-.953q-.141-.656-.211-.945t-.273-.758-.484-.75q-.516-.516-1.578-1.875-.766-1-1.578-1.891t-1.188-.922q-.391-.031-.672-.32t-.281-.68V6.999q0-.406.297-.695t.703-.305q.547-.016 2.469-.688 1.203-.406 1.883-.617t1.898-.453 2.25-.242h2.016q2.078.031 3.078 1.219.906 1.078.766 2.828.609.578.844 1.469.266.953 0 1.828.719.953.672 2.141 0 .5-.234 1.188z"/></svg>