<svg xmlns="http://www.w3.org/2000/svg" width="24" height="28" viewBox="0 0 24 28"><path fill="currentColor" d="M4 21q0-.406-.297-.703T3 20t-.703.297T2 21t.297.703T3 22t.703-.297T4 21zm18-9q0-.797-.609-1.398T20 10h-5.5q0-.906.75-2.492T16 5q0-1.531-.5-2.266T13.5 2q-.406.406-.594 1.328t-.477 1.961T11.499 7q-.344.359-1.203 1.422-.063.078-.359.469t-.492.641-.539.664-.625.688-.602.555-.625.422-.555.141h-.5v10h.5q.203 0 .492.047t.516.102.594.172.547.18.555.195.453.164q3.297 1.141 5.344 1.141h1.891q3 0 3-2.609 0-.406-.078-.875.469-.25.742-.82t.273-1.148-.281-1.078q.828-.781.828-1.859 0-.391-.156-.867t-.391-.742q.5-.016.836-.734T22 12.005zm2-.016q0 1.391-.766 2.547.141.516.141 1.078 0 1.203-.594 2.25.047.328.047.672 0 1.578-.938 2.781.016 2.172-1.328 3.43T17.015 26h-2.016q-1.5 0-2.961-.352t-3.383-1.023Q6.842 24 6.499 24h-4.5q-.828 0-1.414-.586T-.001 22V12q0-.828.586-1.414T1.999 10H6.28q.562-.375 2.141-2.422.906-1.172 1.672-2 .375-.391.555-1.336t.477-1.977.969-1.687Q12.703 0 13.5 0q1.313 0 2.359.508t1.594 1.586T18 5q0 1.453-.75 3H20q1.625 0 2.812 1.188T24 11.985z"/></svg>