<svg xmlns="http://www.w3.org/2000/svg" width="22" height="28" viewBox="0 0 22 28"><path fill="currentColor" d="M8 21.5v-11q0-.219-.141-.359T7.5 10h-1q-.219 0-.359.141T6 10.5v11q0 .219.141.359T6.5 22h1q.219 0 .359-.141T8 21.5zm4 0v-11q0-.219-.141-.359T11.5 10h-1q-.219 0-.359.141T10 10.5v11q0 .219.141.359T10.5 22h1q.219 0 .359-.141T12 21.5zm4 0v-11q0-.219-.141-.359T15.5 10h-1q-.219 0-.359.141T14 10.5v11q0 .219.141.359T14.5 22h1q.219 0 .359-.141T16 21.5zM7.5 6h7l-.75-1.828q-.109-.141-.266-.172H8.531q-.156.031-.266.172zm14.5.5v1q0 .219-.141.359T21.5 8H20v14.812q0 1.297-.734 2.242t-1.766.945h-13q-1.031 0-1.766-.914T2 22.874V7.999H.5q-.219 0-.359-.141T0 7.499v-1q0-.219.141-.359T.5 5.999h4.828L6.422 3.39q.234-.578.844-.984T8.5 2h5q.625 0 1.234.406t.844.984l1.094 2.609H21.5q.219 0 .359.141t.141.359z"/></svg>