<svg xmlns="http://www.w3.org/2000/svg" width="22" height="28" viewBox="0 0 22 28"><path fill="currentColor" d="M8 11.5v9q0 .219-.141.359T7.5 21h-1q-.219 0-.359-.141T6 20.5v-9q0-.219.141-.359T6.5 11h1q.219 0 .359.141T8 11.5zm4 0v9q0 .219-.141.359T11.5 21h-1q-.219 0-.359-.141T10 20.5v-9q0-.219.141-.359T10.5 11h1q.219 0 .359.141T12 11.5zm4 0v9q0 .219-.141.359T15.5 21h-1q-.219 0-.359-.141T14 20.5v-9q0-.219.141-.359T14.5 11h1q.219 0 .359.141T16 11.5zm2 11.313V8.001H4v14.812q0 .344.109.633t.227.422.164.133h13q.047 0 .164-.133t.227-.422.109-.633zM7.5 6h7l-.75-1.828q-.109-.141-.266-.172H8.531q-.156.031-.266.172zm14.5.5v1q0 .219-.141.359T21.5 8H20v14.812q0 1.297-.734 2.242t-1.766.945h-13q-1.031 0-1.766-.914T2 22.874V7.999H.5q-.219 0-.359-.141T0 7.499v-1q0-.219.141-.359T.5 5.999h4.828L6.422 3.39q.234-.578.844-.984T8.5 2h5q.625 0 1.234.406t.844.984l1.094 2.609H21.5q.219 0 .359.141t.141.359z"/></svg>