<svg xmlns="http://www.w3.org/2000/svg" width="122" height="30" viewBox="0 0 122 30" preserveAspectRatio="xMidYMid meet" style="width: 100%; height: 100%; transform: translate3d(0px, 0px, 0px); transform-origin: 0px 0px 0px;"><defs><clipPath id="animationMask_9JVxY8AIId"><rect width="122" height="30" x="0" y="0"></rect></clipPath><clipPath id="OCGru38PKk"><path fill="#ffffff" clip-rule="nonzero" d=" M1291.5,413.912 C1291.5,413.912 630,413.725 630,413.725 C630,413.725 630,575.625 630,575.625 C630,575.625 1291.5,575.812 1291.5,575.812 C1291.5,575.812 1291.5,413.912 1291.5,413.912"></path></clipPath><clipPath id="WbhiIv3H5F"><path fill="#ffffff" clip-rule="nonzero" d=" M1279.9171101097122,414 C1279.9171101097122,414 618.3315595611516,414 618.3315595611516,414 C618.3315595611516,414 618.3315595611516,576.5 618.3315595611516,576.5 C618.3315595611516,576.5 1279.9171101097122,576.5 1279.9171101097122,576.5 C1279.9171101097122,576.5 1279.9171101097122,414 1279.9171101097122,414"></path></clipPath><path d=" M1279.5,414 C1279.5,414 618,414 618,414 C618,414 618.5,576 618.5,576 C618.5,576 1280,576 1280,576 C1280,576 1279.5,414 1279.5,414"></path><clipPath id="CXb6qUgndw"><path fill="#ffffff" clip-rule="nonzero" d=" M720.118,395 C720.118,395 531.605,395 531.605,395 C531.605,395 531.605,606 531.605,606 C531.605,606 720.118,606 720.118,606 C720.118,606 720.118,395 720.118,395"></path></clipPath><path d=" M1279.5,414 C1279.5,414 618,414 618,414 C618,414 618.5,576 618.5,576 C618.5,576 1280,576 1280,576 C1280,576 1279.5,414 1279.5,414"></path><clipPath id="D4vWAo283F"><path fill="#ffffff" clip-rule="nonzero" d=" M786,400 C786,400 747,400 747,400 C747,400 747,601 747,601 C747,601 786,601 786,601 C786,601 786,400 786,400"></path></clipPath><path d=" M1279.5,414 C1279.5,414 618,414 618,414 C618,414 618.5,576 618.5,576 C618.5,576 1280,576 1280,576 C1280,576 1279.5,414 1279.5,414"></path><clipPath id="gD0ae7FTE7"><path fill="#ffffff" clip-rule="nonzero" d=" M864.375,393 C864.375,393 825.25,393 825.25,393 C825.25,393 825.25,609 825.25,609 C825.25,609 864.375,609 864.375,609 C864.375,609 864.375,393 864.375,393"></path></clipPath><path d=" M1279.5,414 C1279.5,414 618,414 618,414 C618,414 618.5,576 618.5,576 C618.5,576 1280,576 1280,576 C1280,576 1279.5,414 1279.5,414"></path><clipPath id="DCV9VXtSuF"><path fill="#ffffff" clip-rule="nonzero" d=" M1267.75,388.765 C1267.75,388.765 1227.874,388.235 1227.874,388.235 C1227.874,388.235 1227.849,585.958 1227.849,585.958 C1227.849,585.958 1266.849,586.512 1266.849,586.512 C1266.849,586.512 1267.75,388.765 1267.75,388.765"></path></clipPath><path d=" M1279.5,414 C1279.5,414 618,414 618,414 C618,414 618.5,576 618.5,576 C618.5,576 1280,576 1280,576 C1280,576 1279.5,414 1279.5,414"></path><clipPath id="bUaOLMMW2b"><path fill="#ffffff" clip-rule="nonzero" d=" M955.125,504.75 C955.125,504.75 916.188,504.75 916.188,504.75 C916.188,504.75 916.188,723.125 916.188,723.125 C916.188,723.125 955.125,723.125 955.125,723.125 C955.125,723.125 955.125,504.75 955.125,504.75"></path></clipPath><path d=" M1279.5,414 C1279.5,414 618,414 618,414 C618,414 618.5,576 618.5,576 C618.5,576 1280,576 1280,576 C1280,576 1279.5,414 1279.5,414"></path><clipPath id="QFX7YcuoXT"><path fill="#ffffff" clip-rule="nonzero" d=" M1111,378 C1111,378 1072,378 1072,378 C1072,378 1072,654 1072,654 C1072,654 1111,654 1111,654 C1111,654 1111,378 1111,378"></path></clipPath><clipPath id="djWty7seqY"><path fill="#ffffff" clip-rule="nonzero" d=" M226.164,226.702 C226.164,226.702 189.954,226.722 189.954,226.722 C189.954,226.722 189.954,271.024 189.954,271.024 C189.954,271.024 226.164,271.004 226.164,271.004 C226.164,271.004 226.164,226.702 226.164,226.702"></path></clipPath><clipPath id="rUOMRqjcmo"><path fill="#ffffff" clip-rule="nonzero" d=" M240.007,232.019 C240.007,232.019 222.473,232.023 222.473,232.023 C222.473,232.023 222.465,239.629 222.465,239.629 C222.465,239.629 239.999,239.625 239.999,239.625 C239.999,239.625 240.007,232.019 240.007,232.019"></path></clipPath><clipPath id="BB9gKVzuJQ"><path fill="#ffffff" clip-rule="nonzero" d=" M256.084,244.022 C256.084,244.022 238.361,244.004 238.361,244.004 C238.361,244.004 238.361,254.317 238.361,254.317 C238.361,254.317 256.084,254.335 256.084,254.335 C256.084,254.335 256.084,244.022 256.084,244.022"></path></clipPath><clipPath id="pwxdUoVjfm"><path fill="#ffffff" clip-rule="nonzero" d=" M282.448,232.021 C282.448,232.021 234.687,232.042 234.687,232.042 C234.687,232.042 234.687,239.633 234.687,239.633 C234.687,239.633 282.448,239.612 282.448,239.612 C282.448,239.612 282.448,232.021 282.448,232.021"></path><path fill="#ffffff" clip-rule="nonzero" d=" M284.564,199.729 C284.564,199.729 255.187,199.741 255.187,199.741 C255.187,199.741 255.259,262.949 255.259,262.949 C255.259,262.949 284.636,262.936 284.636,262.936 C284.636,262.936 284.564,199.729 284.564,199.729"></path></clipPath><clipPath id="oFYlkp7nPb"><path fill="#ffffff" clip-rule="nonzero" d=" M298.289,261.418 C298.289,261.418 253.277,261.521 253.277,261.521 C253.277,261.521 253.268,281.45 253.268,281.45 C253.268,281.45 298.281,281.347 298.281,281.347 C298.281,281.347 298.289,261.418 298.289,261.418"></path></clipPath><clipPath id="wC8ytj3WXl"><path fill="#ffffff" clip-rule="nonzero" d=" M294.696,232.013 C294.696,232.013 271.562,232.042 271.562,232.042 C271.562,232.042 271.514,241.536 271.514,241.536 C271.514,241.536 294.649,241.507 294.649,241.507 C294.649,241.507 294.696,232.013 294.696,232.013"></path></clipPath><clipPath id="OKZvlrwhM6"><path fill="#ffffff" clip-rule="nonzero" d=" M306.607,244.739 C306.607,244.739 296.824,244.739 296.824,244.739 C296.824,244.739 296.849,272.543 296.849,272.543 C296.849,272.543 306.633,272.543 306.633,272.543 C306.633,272.543 306.607,244.739 306.607,244.739"></path></clipPath><clipPath id="TST8Ic6foY"><path fill="#ffffff" clip-rule="nonzero" d=" M307.8306209700746,241.364 C307.8306209700746,241.364 287.195,241.364 287.195,241.364 C287.195,241.364 287.209,255.32 287.209,255.32 C287.209,255.32 307.8446209700746,255.32 307.8446209700746,255.32 C307.8446209700746,255.32 307.8306209700746,241.364 307.8306209700746,241.364"></path></clipPath><clipPath id="Re1Uy2yrHz"><path fill="#ffffff" clip-rule="nonzero" d=" M295.585,231.146 C295.585,231.146 333.559,231.175 333.559,231.175 C333.559,231.175 333.559,242.858 333.559,242.858 C333.559,242.858 295.585,242.829 295.585,242.829 C295.585,242.829 295.585,231.146 295.585,231.146"></path><path fill="#ffffff" clip-rule="nonzero" d=" M309.97904383066106,260.037 C309.97904383066106,260.037 327.44822836581795,260.02434370944974 327.44822836581795,260.02434370944974 C327.44822836581795,260.02434370944974 327.44822836581795,271.70734370944973 327.44822836581795,271.70734370944973 C327.44822836581795,271.70734370944973 309.97904383066106,271.72 309.97904383066106,271.72 C309.97904383066106,271.72 309.97904383066106,260.037 309.97904383066106,260.037"></path></clipPath></defs><g clip-path="url(#animationMask_9JVxY8AIId)"><g clip-path="url(#OCGru38PKk)" transform="matrix(0.185,0,0,0.185,-116.6,-76.525)" opacity="1"><g clip-path="url(#Re1Uy2yrHz)" style="user-select: none;" transform="matrix(4.253,0,0,4.253,-102.625,-573)" opacity="1"><g opacity="1" transform="matrix(1,0,0,1,249.82,251.093)"><path style="display: none;" fill="rgb(0,0,0)" fill-opacity="1" d=" M74.818,-19.068 C74.818,-19.068 47.34,-19.068 47.34,-19.068 C47.34,-19.068 47.34,-11.472 47.34,-11.472 C47.34,-11.472 65.656,-11.472 65.656,-11.472 C65.656,-11.472 65.656,11.474 65.656,11.474 C65.656,11.474 59.556,11.474 59.556,11.474 C59.556,11.474 59.556,19.068 59.556,19.068 C59.556,19.068 77.872,19.068 77.872,19.068 C77.872,19.068 77.872,11.474 77.872,11.474 C77.872,11.474 74.818,11.474 74.818,11.474 C74.818,11.474 74.818,-19.068 74.818,-19.068z"></path></g></g><g clip-path="url(#TST8Ic6foY)" style="user-select: none;" transform="matrix(4.253,0,0,4.253,-102.875,-573)" opacity="1"><g opacity="1" transform="matrix(1,0,0,1,249.82,251.093)"><path style="display: none;" fill="rgb(0,0,0)" fill-opacity="1" d=" M59.568,-5.364 C59.568,-5.364 47.384,-5.391 47.384,-5.391 C47.384,-5.391 47.362,2.298 47.362,2.298 C47.362,2.298 59.568,2.31 59.568,2.31 C59.568,2.31 59.568,-4.385 59.568,-4.385 C59.568,-4.385 59.568,-5.364 59.568,-5.364z"></path></g></g><g clip-path="url(#OKZvlrwhM6)" style="user-select: none;" transform="matrix(4.253,0,0,4.253,-102.875,-573)" opacity="1"><g opacity="1" transform="matrix(1,0,0,1,249.82,251.093)"><path style="display: none;" fill="rgb(0,0,0)" fill-opacity="1" d=" M47.356,2.16 C47.356,2.16 47.34,19.068 47.34,19.068 C47.34,19.068 56.503,19.068 56.503,19.068 C56.503,19.068 56.516,2.163 56.516,2.163 C56.516,2.163 47.356,2.16 47.356,2.16z"></path></g></g><g clip-path="url(#wC8ytj3WXl)" style="user-select: none;" transform="matrix(4.253,0,0,4.253,-102.875,-573)" opacity="1"><g opacity="1" transform="matrix(1,0,0,1,249.82,251.093)"><path style="display: none;" fill="rgb(0,0,0)" fill-opacity="1" d=" M22.906,-11.472 C22.906,-11.472 29.016,-11.472 29.016,-11.472 C29.016,-11.472 29.016,19.068 29.016,19.068 C29.016,19.068 38.179,19.068 38.179,19.068 C38.179,19.068 38.179,-11.472 38.179,-11.472 C38.179,-11.472 44.287,-11.472 44.287,-11.472 C44.287,-11.472 44.287,-19.068 44.287,-19.068 C44.287,-19.068 22.906,-19.068 22.906,-19.068 C22.906,-19.068 22.906,-11.472 22.906,-11.472z"></path></g></g><g clip-path="url(#oFYlkp7nPb)" style="user-select: none;" transform="matrix(4.253,0,0,4.253,-102.875,-573)" opacity="1"><g opacity="1" transform="matrix(1,0,0,1,249.82,251.093)"><path style="display: none;" fill="rgb(0,0,0)" fill-opacity="1" d=" M10.69,11.474 C10.69,11.474 4.588,11.474 4.588,11.474 C4.588,11.474 4.588,19.068 4.588,19.068 C4.588,19.068 22.906,19.068 22.906,19.068 C22.906,19.068 22.906,11.474 22.906,11.474 C22.906,11.474 19.852,11.474 19.852,11.474 C19.852,11.474 10.69,11.474 10.69,11.474z"></path></g></g><g clip-path="url(#pwxdUoVjfm)" style="user-select: none;" transform="matrix(4.253,0,0,4.253,-102.875,-573)" opacity="1"><g opacity="1" transform="matrix(1,0,0,1,249.82,251.093)"><path style="display: none;" fill="rgb(0,0,0)" fill-opacity="1" d=" M19.852,-19.068 C19.852,-19.068 -7.628,-19.068 -7.628,-19.068 C-7.628,-19.068 -7.628,-11.472 -7.628,-11.472 C-7.628,-11.472 10.69,-11.472 10.69,-11.472 C10.69,-11.472 10.696,11.533 10.696,11.533 C10.696,11.533 19.858,11.533 19.858,11.533 C19.858,11.533 19.852,-19.068 19.852,-19.068z"></path></g></g><g clip-path="url(#BB9gKVzuJQ)" style="user-select: none;" transform="matrix(4.253,0,0,4.253,-102.875,-573)" opacity="1"><g opacity="1" transform="matrix(1,0,0,1,249.82,251.093)"><path style="display: none;" fill="rgb(0,0,0)" fill-opacity="1" d=" M4.602,-5.364 C4.602,-5.364 -7.628,-5.364 -7.628,-5.364 C-7.628,-5.364 -7.628,19.068 -7.628,19.068 C-7.628,19.068 1.535,19.068 1.535,19.068 C1.535,19.068 1.535,2.31 1.535,2.31 C1.535,2.31 4.602,2.31 4.602,2.31 C4.602,2.31 4.602,-5.364 4.602,-5.364z"></path></g></g><g clip-path="url(#rUOMRqjcmo)" style="user-select: none;" transform="matrix(4.253,0,0,4.253,-102.875,-573)" opacity="1"><g opacity="1" transform="matrix(1,0,0,1,249.82,251.093)"><path style="display: none;" fill="rgb(0,0,0)" fill-opacity="1" d=" M-29.006,19.068 C-29.006,19.068 -19.806,19.068 -19.806,19.068 C-19.806,19.068 -19.806,-11.472 -19.806,-11.472 C-19.806,-11.472 -10.681,-11.472 -10.681,-11.472 C-10.681,-11.472 -10.681,-19.068 -10.681,-19.068 C-10.681,-19.068 -29.006,-19.068 -29.006,-19.068 C-29.006,-19.068 -29.006,19.068 -29.006,19.068z"></path></g></g><g clip-path="url(#djWty7seqY)" style="user-select: none;" transform="matrix(4.253,0,0,4.253,-102.875,-573)" opacity="1"><g opacity="1" transform="matrix(1,0,0,1,249.82,251.093)"><path style="display: none;" fill="rgb(0,0,0)" fill-opacity="1" d=" M-53.441,-11.472 C-53.441,-11.472 -47.331,-11.472 -47.331,-11.472 C-47.331,-11.472 -47.331,19.068 -47.331,19.068 C-47.331,19.068 -38.167,19.068 -38.167,19.068 C-38.167,19.068 -38.167,-11.472 -38.167,-11.472 C-38.167,-11.472 -32.06,-11.472 -32.06,-11.472 C-32.06,-11.472 -32.06,-19.068 -32.06,-19.068 C-32.06,-19.068 -53.441,-19.068 -53.441,-19.068 C-53.441,-19.068 -53.441,-11.472 -53.441,-11.472z"></path></g></g><g style="user-select: none;" transform="matrix(4.253,0,0,4.253,-102.875,-573)" opacity="1"><g opacity="1" transform="matrix(1,0,0,1,249.82,251.093)"><path style="display: none;" fill="rgb(0,0,0)" fill-opacity="1" d=" M-68.708,5.364 C-68.708,5.364 -77.872,5.364 -77.872,5.364 C-77.872,5.364 -77.872,-19.068 -77.872,-19.068 C-77.872,-19.068 -56.517,-19.068 -56.517,-19.068 C-56.517,-19.068 -56.517,-11.471 -56.517,-11.471 C-56.517,-11.471 -68.708,-11.471 -68.708,-11.471 C-68.708,-11.471 -68.708,5.364 -68.708,5.364z M-62.6,11.474 C-62.6,11.474 -53.464,11.474 -53.464,11.474 C-53.464,11.474 -53.464,-5.364 -53.464,-5.364 C-53.464,-5.364 -62.6,-5.364 -62.6,-5.364 C-62.6,-5.364 -62.6,-5.283 -62.6,-5.283 C-62.6,-5.283 -62.6,11.474 -62.6,11.474z M-77.872,19.068 C-77.872,19.068 -62.6,19.068 -62.6,19.068 C-62.6,19.068 -62.6,11.474 -62.6,11.474 C-62.6,11.474 -77.872,11.474 -77.872,11.474 C-77.872,11.474 -77.872,19.068 -77.872,19.068z"></path></g></g><g clip-path="url(#QFX7YcuoXT)" transform="matrix(1,0,0,1,11,0)" opacity="1"><rect width="1920" height="1080" fill="#000000" style="display: none;"></rect></g><g clip-path="url(#bUaOLMMW2b)" transform="matrix(1,0,0,1,11,0)" opacity="1"><rect width="1920" height="1080" fill="#000000" style="display: none;"></rect></g><g clip-path="url(#DCV9VXtSuF)" transform="matrix(1,0,0,1,11,0)" opacity="1"><rect width="1920" height="1080" fill="#000000" style="display: none;"></rect></g><g clip-path="url(#gD0ae7FTE7)" transform="matrix(1,0,0,1,11,0)" opacity="1"><rect width="1920" height="1080" fill="#000000" style="display: none;"></rect></g><g clip-path="url(#D4vWAo283F)" transform="matrix(1,0,0,1,11,0)" opacity="1"><rect width="1920" height="1080" fill="#000000" style="display: none;"></rect></g><g clip-path="url(#CXb6qUgndw)" transform="matrix(1,0,0,1,11,0)" opacity="1"><rect width="1920" height="1080" fill="#000000" style="display: none;"></rect></g><g></g><g clip-path="url(#WbhiIv3H5F)" transform="matrix(1,0,0,1,11,0)" opacity="1"><rect width="1920" height="1080" fill="#000000" style="display: none;"></rect></g><g></g><g style="user-select: none;" transform="matrix(4.253,0,0,4.253,-102.875,-573)" opacity="1"><g opacity="1" transform="matrix(1,0,0,1,249.82,251.093)"><path style="display: block;" fill="rgb(0,0,0)" fill-opacity="1" d=" M74.818,-19.068 C74.818,-19.068 47.34,-19.068 47.34,-19.068 C47.34,-19.068 47.34,-11.472 47.34,-11.472 C47.34,-11.472 65.656,-11.472 65.656,-11.472 C65.656,-11.472 65.656,11.474 65.656,11.474 C65.656,11.474 59.556,11.474 59.556,11.474 C59.556,11.474 59.556,19.068 59.556,19.068 C59.556,19.068 77.872,19.068 77.872,19.068 C77.872,19.068 77.872,11.474 77.872,11.474 C77.872,11.474 74.818,11.474 74.818,11.474 C74.818,11.474 74.818,-19.068 74.818,-19.068z M59.568,-5.364 C59.568,-5.364 47.34,-5.364 47.34,-5.364 C47.34,-5.364 47.34,19.068 47.34,19.068 C47.34,19.068 56.503,19.068 56.503,19.068 C56.503,19.068 56.503,2.31 56.503,2.31 C56.503,2.31 59.568,2.31 59.568,2.31 C59.568,2.31 59.568,-5.364 59.568,-5.364z M22.906,-11.472 C22.906,-11.472 29.016,-11.472 29.016,-11.472 C29.016,-11.472 29.016,19.068 29.016,19.068 C29.016,19.068 38.179,19.068 38.179,19.068 C38.179,19.068 38.179,-11.472 38.179,-11.472 C38.179,-11.472 44.287,-11.472 44.287,-11.472 C44.287,-11.472 44.287,-19.068 44.287,-19.068 C44.287,-19.068 22.906,-19.068 22.906,-19.068 C22.906,-19.068 22.906,-11.472 22.906,-11.472z M19.852,-19.068 C19.852,-19.068 -7.628,-19.068 -7.628,-19.068 C-7.628,-19.068 -7.628,-11.472 -7.628,-11.472 C-7.628,-11.472 10.69,-11.472 10.69,-11.472 C10.69,-11.472 10.69,11.474 10.69,11.474 C10.69,11.474 4.588,11.474 4.588,11.474 C4.588,11.474 4.588,19.068 4.588,19.068 C4.588,19.068 22.906,19.068 22.906,19.068 C22.906,19.068 22.906,11.474 22.906,11.474 C22.906,11.474 19.852,11.474 19.852,11.474 C19.852,11.474 19.852,-19.068 19.852,-19.068z M4.602,-5.364 C4.602,-5.364 -7.628,-5.364 -7.628,-5.364 C-7.628,-5.364 -7.628,19.068 -7.628,19.068 C-7.628,19.068 1.535,19.068 1.535,19.068 C1.535,19.068 1.535,2.31 1.535,2.31 C1.535,2.31 4.602,2.31 4.602,2.31 C4.602,2.31 4.602,-5.364 4.602,-5.364z M-29.006,19.068 C-29.006,19.068 -19.806,19.068 -19.806,19.068 C-19.806,19.068 -19.806,-11.472 -19.806,-11.472 C-19.806,-11.472 -10.681,-11.472 -10.681,-11.472 C-10.681,-11.472 -10.681,-19.068 -10.681,-19.068 C-10.681,-19.068 -29.006,-19.068 -29.006,-19.068 C-29.006,-19.068 -29.006,19.068 -29.006,19.068z M-53.441,-11.472 C-53.441,-11.472 -47.331,-11.472 -47.331,-11.472 C-47.331,-11.472 -47.331,19.068 -47.331,19.068 C-47.331,19.068 -38.167,19.068 -38.167,19.068 C-38.167,19.068 -38.167,-11.472 -38.167,-11.472 C-38.167,-11.472 -32.06,-11.472 -32.06,-11.472 C-32.06,-11.472 -32.06,-19.068 -32.06,-19.068 C-32.06,-19.068 -53.441,-19.068 -53.441,-19.068 C-53.441,-19.068 -53.441,-11.472 -53.441,-11.472z M-68.708,5.364 C-68.708,5.364 -77.872,5.364 -77.872,5.364 C-77.872,5.364 -77.872,-19.068 -77.872,-19.068 C-77.872,-19.068 -56.517,-19.068 -56.517,-19.068 C-56.517,-19.068 -56.517,-11.471 -56.517,-11.471 C-56.517,-11.471 -68.708,-11.471 -68.708,-11.471 C-68.708,-11.471 -68.708,5.364 -68.708,5.364z M-62.6,11.474 C-62.6,11.474 -53.464,11.474 -53.464,11.474 C-53.464,11.474 -53.464,-5.364 -53.464,-5.364 C-53.464,-5.364 -62.6,-5.364 -62.6,-5.364 C-62.6,-5.364 -62.6,-5.283 -62.6,-5.283 C-62.6,-5.283 -62.6,11.474 -62.6,11.474z M-77.872,19.068 C-77.872,19.068 -62.6,19.068 -62.6,19.068 C-62.6,19.068 -62.6,11.474 -62.6,11.474 C-62.6,11.474 -77.872,11.474 -77.872,11.474 C-77.872,11.474 -77.872,19.068 -77.872,19.068z"></path></g></g></g></g></svg>
