<svg xmlns="http://www.w3.org/2000/svg" width="18" height="28" viewBox="0 0 18 28"><path fill="currentColor" d="M16.797 20.5q0 .203-.156.359l-.781.781q-.156.156-.359.156t-.359-.156l-6.141-6.141L2.86 21.64q-.156.156-.359.156t-.359-.156l-.781-.781q-.156-.156-.156-.359t.156-.359l7.281-7.281q.156-.156.359-.156t.359.156l7.281 7.281q.156.156.156.359zm0-6q0 .203-.156.359l-.781.781q-.156.156-.359.156t-.359-.156L9.001 9.499 2.86 15.64q-.156.156-.359.156t-.359-.156l-.781-.781q-.156-.156-.156-.359t.156-.359L8.642 6.86q.156-.156.359-.156t.359.156l7.281 7.281q.156.156.156.359z"/></svg>