<svg xmlns="http://www.w3.org/2000/svg" width="17" height="28" viewBox="0 0 17 28"><path fill="currentColor" d="M9.797 21.5q0 .203-.156.359l-.781.781q-.156.156-.359.156t-.359-.156L.861 15.359Q.705 15.203.705 15t.156-.359L8.142 7.36q.156-.156.359-.156t.359.156l.781.781q.156.156.156.359t-.156.359L3.5 15l6.141 6.141q.156.156.156.359zm6 0q0 .203-.156.359l-.781.781q-.156.156-.359.156t-.359-.156l-7.281-7.281q-.156-.156-.156-.359t.156-.359l7.281-7.281q.156-.156.359-.156t.359.156l.781.781q.156.156.156.359t-.156.359L9.5 15l6.141 6.141q.156.156.156.359z"/></svg>