<svg xmlns="http://www.w3.org/2000/svg" width="18" height="28" viewBox="0 0 18 28"><path fill="currentColor" d="M16.797 13.5q0 .203-.156.359L9.36 21.14q-.156.156-.359.156t-.359-.156l-7.281-7.281q-.156-.156-.156-.359t.156-.359l.781-.781q.156-.156.359-.156t.359.156l6.141 6.141 6.141-6.141q.156-.156.359-.156t.359.156l.781.781q.156.156.156.359zm0-6q0 .203-.156.359L9.36 15.14q-.156.156-.359.156t-.359-.156L1.361 7.859q-.156-.156-.156-.359t.156-.359l.781-.781q.156-.156.359-.156t.359.156l6.141 6.141 6.141-6.141q.156-.156.359-.156t.359.156l.781.781q.156.156.156.359z"/></svg>