<?xml version="1.0" encoding="UTF-8"?>
<svg width="167px" height="177px" viewBox="0 0 167 177" version="1.1" xmlns="http://www.w3.org/2000/svg" xmlns:xlink="http://www.w3.org/1999/xlink">
    <!-- Generator: Sketch 44.1 (41455) - http://www.bohemiancoding.com/sketch -->
    <title>angularjs-shield</title>
    <desc>Created with Sketch.</desc>
    <defs></defs>
    <g id="Page-1" stroke="none" stroke-width="1" fill="none" fill-rule="evenodd">
        <g id="angularjs-logo" fill-rule="nonzero">
            <g id="angularjs-shield">
                <polygon id="polygon50" fill="#B3B3B3" points="13.621 138.311 83.331 176.625 153.4 137.792 166.462 29.46 83.243 0.875 0.554 29.975"></polygon>
                <polygon id="polygon52" fill="#A6120D" points="83.05 167.471 146.041 132.609 158.214 35.721 83.05 10.089"></polygon>
                <polygon id="polygon54" fill="#DD1B16" points="83.049 167.471 83.049 10.086 9.833 36.183 21.03 133.072"></polygon>
                <path d="M103.74,93.871 L83.05,103.546 L61.243,103.546 L50.992,129.186 L31.925,129.539 L83.05,15.804 L103.74,93.871 Z M101.74,89 L83.187,52.271 L67.969,88.368 L83.049,88.368 L101.74,89 Z" id="path56" fill="#F2F2F2"></path>
                <polygon id="polygon58" fill="#B3B3B3" points="100.454 88.396 83.088 88.396 83.049 103.523 107.062 103.546 118.285 129.543 136.529 129.881 83.049 15.804 83.186 52.271"></polygon>
            </g>
        </g>
    </g>
</svg>