<svg xmlns="http://www.w3.org/2000/svg" width="22" height="28" viewBox="0 0 22 28"><path fill="currentColor" d="M21.766 18.984q-.609 1.953-1.922 3.906-2.016 3.063-4.016 3.063-.766 0-2.188-.5-1.344-.5-2.359-.5-.953 0-2.219.516Q7.796 26 6.999 26q-2.375 0-4.703-4.047-2.297-4.078-2.297-7.859 0-3.563 1.766-5.844Q3.515 6 6.203 6q1.125 0 2.766.469 1.625.469 2.156.469.703 0 2.234-.531 1.594-.531 2.703-.531 1.859 0 3.328 1.016.812.562 1.625 1.563-1.234 1.047-1.781 1.844-1.016 1.469-1.016 3.234 0 1.937 1.078 3.484t2.469 1.969zM15.891.656q0 .953-.453 2.125-.469 1.172-1.453 2.156-.844.844-1.687 1.125-.578.172-1.625.266Q10.72 4 11.892 2.312 13.048.64 15.798 0q.016.047.039.172t.039.172q0 .063.008.156t.008.156z"/></svg>