<svg xmlns="http://www.w3.org/2000/svg" width="24" height="28" viewBox="0 0 24 28"><path fill="currentColor" d="M18 14q0 .219-.141.359l-5 5q-.141.141-.359.141-.203 0-.352-.148T12 19v-3H6.5q-.203 0-.352-.148T6 15.5v-3q0-.203.148-.352T6.5 12H12V9q0-.219.141-.359T12.5 8.5q.187 0 .375.156l4.984 4.984q.141.141.141.359zm2.5 0q0-2.312-1.141-4.266T16.265 6.64t-4.266-1.141T7.733 6.64 4.639 9.734 3.498 14t1.141 4.266 3.094 3.094 4.266 1.141 4.266-1.141 3.094-3.094T20.5 14zm3.5 0q0 3.266-1.609 6.023t-4.367 4.367-6.023 1.609-6.023-1.609-4.367-4.367T.002 14t1.609-6.023T5.978 3.61t6.023-1.609 6.023 1.609 4.367 4.367T24 14z"/></svg>