<svg xmlns="http://www.w3.org/2000/svg" width="24" height="28" viewBox="0 0 24 28"><path fill="currentColor" d="M20.078 14q0-.422-.281-.703l-7.078-7.078q-.281-.281-.703-.281t-.703.281L9.891 7.641q-.281.281-.281.703t.281.703L12.844 12H5q-.406 0-.703.297T4 13v2q0 .406.297.703T5 16h7.844l-2.953 2.953q-.297.297-.297.703t.297.703l1.422 1.422q.281.281.703.281t.703-.281l7.078-7.078q.281-.281.281-.703zM24 14q0 3.266-1.609 6.023t-4.367 4.367-6.023 1.609-6.023-1.609-4.367-4.367T.002 14t1.609-6.023T5.978 3.61t6.023-1.609 6.023 1.609 4.367 4.367T24 14z"/></svg>