<svg xmlns="http://www.w3.org/2000/svg" width="26" height="28" viewBox="0 0 26 28"><path fill="currentColor" d="M23.156 16.406q.719.406.93 1.211t-.195 1.523l-1 1.719q-.406.719-1.211.93t-1.523-.195l-4.156-2.391V24q0 .812-.594 1.406T14.001 26h-2q-.812 0-1.406-.594T10.001 24v-4.797l-4.156 2.391q-.719.406-1.523.195t-1.211-.93l-1-1.719q-.406-.719-.195-1.523t.93-1.211L7.002 14l-4.156-2.406q-.719-.406-.93-1.211t.195-1.523l1-1.719q.406-.719 1.211-.93t1.523.195l4.156 2.391V4q0-.812.594-1.406T12.001 2h2q.812 0 1.406.594T16.001 4v4.797l4.156-2.391q.719-.406 1.523-.195t1.211.93l1 1.719q.406.719.195 1.523t-.93 1.211L19 14z"/></svg>