<svg xmlns="http://www.w3.org/2000/svg" width="24" height="28" viewBox="0 0 24 28"><path fill="currentColor" d="M16 14q0 1.656-1.172 2.828T12 18t-2.828-1.172T8 14t1.172-2.828T12 10t2.828 1.172T16 14zm2 0q0-2.484-1.758-4.242T12 8 7.758 9.758 6 14t1.758 4.242T12 20t4.242-1.758T18 14zm2 0q0 3.313-2.344 5.656T12 22t-5.656-2.344T4 14t2.344-5.656T12 6t5.656 2.344T20 14zm2 0q0-2.031-.797-3.883T19.07 6.93t-3.187-2.133T12 4t-3.883.797T4.93 6.93t-2.133 3.187T2 14t.797 3.883T4.93 21.07t3.187 2.133T12 24t3.883-.797 3.187-2.133 2.133-3.187T22 14zm2 0q0 3.266-1.609 6.023t-4.367 4.367-6.023 1.609-6.023-1.609-4.367-4.367T.002 14t1.609-6.023T5.978 3.61t6.023-1.609 6.023 1.609 4.367 4.367T24 14z"/></svg>