<svg xmlns="http://www.w3.org/2000/svg" width="28" height="28" viewBox="0 0 28 28"><path fill="currentColor" d="M14.5 13q0-.219-.141-.359T14 12.5q-1.031 0-1.766.734T11.5 15q0 .219.141.359T12 15.5t.359-.141T12.5 15q0-.625.438-1.062T14 13.5q.219 0 .359-.141T14.5 13zm3.5 2.031q0 1.656-1.172 2.828T14 19.031t-2.828-1.172T10 15.031t1.172-2.828T14 11.031t2.828 1.172T18 15.031zM2 24h24v-2H2v2zm18-8.969q0-2.484-1.758-4.242T14 9.031t-4.242 1.758T8 15.031t1.758 4.242T14 21.031t4.242-1.758T20 15.031zM4 5h6V3H4v2zM2 8h24V4H13.062l-1 2H1.999v2zm26-4v20q0 .828-.586 1.414T26 26H2q-.828 0-1.414-.586T0 24V4q0-.828.586-1.414T2 2h24q.828 0 1.414.586T28 4z"/></svg>