<svg xmlns="http://www.w3.org/2000/svg" width="24" height="28" viewBox="0 0 24 28"><path fill="currentColor" d="M21.5 14l2.156 2.109q.469.438.313 1.094-.187.641-.812.797l-2.938.75.828 2.906q.187.641-.297 1.094-.453.484-1.094.297l-2.906-.828-.75 2.938q-.156.625-.797.812-.187.031-.297.031-.484 0-.797-.344L12 23.5l-2.109 2.156q-.438.469-1.094.313-.641-.172-.797-.812l-.75-2.938-2.906.828q-.641.187-1.094-.297-.484-.453-.297-1.094l.828-2.906L.843 18q-.625-.156-.812-.797-.156-.656.313-1.094L2.5 14 .344 11.891q-.469-.438-.313-1.094.187-.641.812-.797l2.938-.75-.828-2.906q-.187-.641.297-1.094.453-.484 1.094-.297l2.906.828L8 2.843q.156-.641.797-.797.641-.187 1.094.297L12 4.515l2.109-2.172q.453-.469 1.094-.297.641.156.797.797l.75 2.938 2.906-.828q.641-.187 1.094.297.484.453.297 1.094l-.828 2.906 2.938.75q.625.156.812.797.156.656-.313 1.094z"/></svg>