<svg xmlns="http://www.w3.org/2000/svg" width="26" height="28" viewBox="0 0 26 28"><path fill="currentColor" d="M22 14.531V19.5q0 1.859-1.32 3.18T17.5 24h-13q-1.859 0-3.18-1.32T0 19.5v-13q0-1.859 1.32-3.18T4.5 2h13q.984 0 1.828.391.234.109.281.359.047.266-.141.453l-.766.766q-.156.156-.359.156-.047 0-.141-.031Q17.843 4 17.499 4h-13q-1.031 0-1.766.734T1.999 6.5v13q0 1.031.734 1.766T4.499 22h13q1.031 0 1.766-.734t.734-1.766v-3.969q0-.203.141-.344l1-1q.156-.156.359-.156.094 0 .187.047.313.125.313.453zm3.609-7.64L12.89 19.61q-.375.375-.891.375t-.891-.375l-6.719-6.719q-.375-.375-.375-.891t.375-.891L6.108 9.39q.375-.375.891-.375t.891.375l4.109 4.109L22.108 3.39q.375-.375.891-.375t.891.375l1.719 1.719q.375.375.375.891t-.375.891z"/></svg>