<svg xmlns="http://www.w3.org/2000/svg" width="24" height="28" viewBox="0 0 24 28"><path fill="currentColor" d="M18.297 12.703l-6.594 6.594q-.297.297-.703.297t-.703-.297l-4.594-4.594q-.297-.297-.297-.703t.297-.703l1.594-1.594q.297-.297.703-.297t.703.297L11 14l4.297-4.297q.297-.297.703-.297t.703.297l1.594 1.594q.297.297.297.703t-.297.703zM20.5 14q0-2.312-1.141-4.266T16.265 6.64t-4.266-1.141T7.733 6.64 4.639 9.734 3.498 14t1.141 4.266 3.094 3.094 4.266 1.141 4.266-1.141 3.094-3.094T20.5 14zm3.5 0q0 3.266-1.609 6.023t-4.367 4.367-6.023 1.609-6.023-1.609-4.367-4.367T.002 14t1.609-6.023T5.978 3.61t6.023-1.609 6.023 1.609 4.367 4.367T24 14z"/></svg>