<svg xmlns="http://www.w3.org/2000/svg" width="28" height="28" viewBox="0 0 28 28"><path fill="currentColor" d="M26 25.5v-17q0-.203-.148-.352T25.5 8h-17q-.203 0-.352.148T8 8.5v17q0 .203.148.352T8.5 26h17q.203 0 .352-.148T26 25.5zm2-17v17q0 1.031-.734 1.766T25.5 28h-17q-1.031 0-1.766-.734T6 25.5v-17q0-1.031.734-1.766T8.5 6h17q1.031 0 1.766.734T28 8.5zm-6-6V5h-2V2.5q0-.203-.148-.352T19.5 2h-17q-.203 0-.352.148T2 2.5v17q0 .203.148.352T2.5 20H5v2H2.5q-1.031 0-1.766-.734T0 19.5v-17Q0 1.469.734.734T2.5 0h17q1.031 0 1.766.734T22 2.5z"/></svg>