<svg xmlns="http://www.w3.org/2000/svg" width="30" height="28" viewBox="0 0 30 28"><path fill="currentColor" d="M20 14.5q0-.219-.141-.359T19.5 14H16V8.5q0-.203-.148-.352T15.5 8h-3q-.203 0-.352.148T12 8.5V14H8.5q-.203 0-.352.148T8 14.5q0 .219.141.359l5.5 5.5q.141.141.359.141t.359-.141l5.484-5.484q.156-.187.156-.375zM30 18q0 2.484-1.758 4.242T24 24H7q-2.891 0-4.945-2.055T0 17q0-2.031 1.094-3.75t2.938-2.578q-.031-.469-.031-.672 0-3.313 2.344-5.656T12.001 2q2.438 0 4.461 1.359t2.945 3.609q1.109-.969 2.594-.969 1.656 0 2.828 1.172t1.172 2.828q0 1.188-.641 2.156 2.031.484 3.336 2.117t1.305 3.727z"/></svg>