<svg xmlns="http://www.w3.org/2000/svg" width="28" height="28" viewBox="0 0 28 28"><path fill="currentColor" d="M26.5 6q.625 0 1.062.438T28 7.5v19q0 .625-.438 1.062T26.5 28h-15q-.625 0-1.062-.438T10 26.5V22H1.5q-.625 0-1.062-.438T0 20.5V10q0-.625.313-1.375t.75-1.188l6.375-6.375q.438-.438 1.188-.75t1.375-.313h6.5q.625 0 1.062.438t.438 1.062v5.125q1.062-.625 2-.625h6.5zM18 9.328L13.328 14H18V9.328zm-10-6L3.328 8H8V3.328zm3.062 10.11l4.937-4.937v-6.5h-6v6.5q0 .625-.438 1.062t-1.062.438h-6.5v10h8v-4q0-.625.313-1.375t.75-1.188zM26 26V8h-6v6.5q0 .625-.438 1.062T18.5 16H12v10h14z"/></svg>