<svg xmlns="http://www.w3.org/2000/svg" width="24" height="28" viewBox="0 0 24 28"><path fill="currentColor" d="M16 14q0 1.656-1.172 2.828T12 18t-2.828-1.172T8 14t1.172-2.828T12 10t2.828 1.172T16 14zm-4-8.5q-2.312 0-4.266 1.141T4.64 9.735t-1.141 4.266 1.141 4.266 3.094 3.094T12 22.502t4.266-1.141 3.094-3.094 1.141-4.266-1.141-4.266-3.094-3.094T12 5.5zM24 14q0 3.266-1.609 6.023t-4.367 4.367-6.023 1.609-6.023-1.609-4.367-4.367T.002 14t1.609-6.023T5.978 3.61t6.023-1.609 6.023 1.609 4.367 4.367T24 14z"/></svg>