<?xml version="1.0" encoding="UTF-8"?>
<svg width="1118px" height="341px" viewBox="0 0 1118 341" version="1.1" xmlns="http://www.w3.org/2000/svg" xmlns:xlink="http://www.w3.org/1999/xlink">
    <!-- Generator: Sketch 44.1 (41455) - http://www.bohemiancoding.com/sketch -->
    <title>ecco</title>
    <desc>Created with Sketch.</desc>
    <defs></defs>
    <g id="Page-1" stroke="none" stroke-width="1" fill="none" fill-rule="evenodd">
        <g id="ecco" fill-rule="nonzero" fill="#692565">
            <polygon id="Shape" transform="translate(964.000000, 58.500000) scale(-1, 1) rotate(-180.000000) translate(-964.000000, -58.500000) " points="948 58.5 948 0 964 0 980 0 980 58.5 980 117 964 117 948 117"></polygon>
            <path d="M130.6,339.405854 C59.3,327.805854 6.4,270.605854 1.1,199.305854 C-3.9,133.005854 33.7,71.2058538 94.5,45.8058538 C127.8,31.9058538 168,30.3058538 202.4,41.5058538 C220.8,47.4058538 242.6,60.2058538 257.6,73.7058538 L263.4,78.9058538 L250.3,92.1058538 L237.2,105.205854 L231.6,100.205854 C219.3,88.9058538 200.7,78.9058538 183.5,74.3058538 C171.4,71.1058538 150,69.9058538 136.8,71.8058538 C127.2,73.2058538 110.9,78.4058538 101.8,83.0058538 C67.9,100.105854 44.2,133.005854 38.4,170.905854 C29.6,229.305854 67.7,286.105854 125.7,300.805854 C164.1,310.605854 204.4,300.105854 233.3,272.905854 C244.3,262.605854 252.4,251.905854 258.5,239.605854 L263.1,230.405854 L179.6,230.105854 L96,229.905854 L96,213.405854 L96,196.905854 L183.5,196.905854 L271,196.905854 L271,184.505854 C271,145.005854 286.5,108.405854 315.5,79.3058538 C338.1,56.7058538 362.2,43.6058538 394,36.8058538 C407.9,33.8058538 437.5,33.5058538 451.7,36.2058538 C496.7,44.6058538 535.4,72.2058538 558.5,112.405854 C559.5,114.005854 560.2,113.305854 563.8,107.105854 C577.7,83.7058538 600.9,62.6058538 626.5,50.0058538 C650.2,38.3058538 667.3,34.4058538 695,34.5058538 C719.9,34.5058538 735.9,37.7058538 756.8,46.8058538 C782.7,58.1058538 807.8,79.2058538 823,102.505854 L829.5,112.505854 L836.3,102.205854 C858.8,68.1058538 894.7,44.4058538 936.5,36.2058538 C949,33.8058538 978.8,33.7058538 991.7,36.2058538 C1092.6,55.1058538 1147.2,164.605854 1101.4,256.405854 C1086.7,285.905854 1062.3,310.205854 1032.5,324.805854 C1025.9,328.005854 1019,331.205854 1017.3,331.705854 L1014,332.805854 L1014,312.005854 L1014,291.305854 L1017.8,289.505854 C1030.1,283.605854 1047.1,269.005854 1056.9,255.905854 C1090.3,211.105854 1086.5,149.205854 1047.8,108.305854 C1021.5,80.5058538 983.3,67.4058538 946,73.4058538 C908.6,79.5058538 877.2,102.905854 860.5,137.305854 C835,189.605854 852.2,251.805854 901.1,283.905854 C906,287.105854 910.9,290.105854 912,290.405854 C913.9,291.005854 914,292.005854 914,312.005854 L914,332.905854 L909.3,331.005854 C872.8,316.605854 843.6,290.105854 826.5,255.905854 C815.6,234.105854 810.9,213.705854 810.9,187.905854 C810.9,170.805854 810.1,164.505854 806.3,152.405854 C795.1,116.705854 767.1,88.5058538 730.9,76.5058538 C716.9,71.8058538 706.9,70.5058538 689.7,71.2058538 C672.6,71.8058538 660.7,74.6058538 646.4,81.3058538 C633.6,87.4058538 624.1,93.8058538 614.7,102.905854 C576.5,139.205854 567.1,194.305854 591.1,240.905854 C597.5,253.305854 603.8,261.605854 615.3,272.505854 C634.5,290.705854 656.8,300.905854 684,303.905854 C708.7,306.605854 737.9,299.205854 758.9,284.905854 C762.5,282.505854 765.8,281.005854 766.6,281.305854 C768.9,282.205854 796,302.005854 796,302.805854 C796,304.105854 778.7,316.505854 770.5,321.305854 C754.9,330.305854 736,336.705854 716.8,339.505854 C702,341.705854 676.7,341.005854 663.2,338.005854 C601.1,324.405854 554.1,275.605854 543.5,213.905854 C542.7,209.205854 541.6,197.305854 541,187.405854 C539.7,162.905854 536.2,149.305854 526.9,131.905854 C518.8,116.905854 505.2,101.705854 490.9,91.6058538 C481.5,84.9058538 464.9,77.3058538 453.3,74.2058538 C441.3,71.1058538 419.7,70.0058538 406.8,71.9058538 C369.9,77.3058538 336.7,101.605854 319.5,135.905854 C311,152.805854 307.6,167.605854 307.6,187.405854 C307.6,202.705854 308.7,209.805854 313.1,223.405854 C327.3,267.605854 366.9,299.205854 414.1,304.005854 C437.2,306.305854 463,300.405854 483,288.205854 C487.1,285.705854 491.7,282.905854 493.1,282.105854 C495.7,280.605854 495.9,280.705854 510.3,291.305854 C518.4,297.205854 525,302.505854 525,303.005854 C525,304.305854 508.9,316.005854 500.3,320.905854 C483.4,330.605854 462.7,337.505854 443.3,340.005854 C430.3,341.605854 405.4,340.605854 392.8,338.005854 C372.9,333.705854 355.1,326.205854 337.9,314.805854 C324.5,305.905854 304.6,285.705854 296,272.205854 C292.4,266.605854 289.3,262.005854 289,262.005854 C288.7,261.905854 287.3,264.105854 285.9,266.705854 C277.9,281.105854 259.4,301.305854 244.3,312.205854 C227.9,323.905854 208,332.805854 187.5,337.505854 C177.3,339.805854 172.8,340.205854 157.5,340.505854 C145.2,340.705854 136.7,340.405854 130.6,339.405854 Z" id="Shape" transform="translate(559.217559, 187.452927) scale(-1, 1) rotate(-180.000000) translate(-559.217559, -187.452927) "></path>
        </g>
    </g>
</svg>
