<svg xmlns="http://www.w3.org/2000/svg" width="28" height="28" viewBox="0 0 28 28"><path fill="currentColor" d="M13.875 18.5l1.813-1.813-2.375-2.375-1.813 1.813V17H13v1.5h.875zM20.75 7.25q-.25-.25-.516.016l-5.469 5.469q-.266.266-.016.516t.516-.016l5.469-5.469Q21 7.5 20.75 7.25zM22 16.531V19.5q0 1.859-1.32 3.18T17.5 24h-13q-1.859 0-3.18-1.32T0 19.5v-13q0-1.859 1.32-3.18T4.5 2h13q.984 0 1.828.391.234.109.281.359.047.266-.141.453l-.766.766q-.219.219-.5.125Q17.843 4 17.499 4h-13q-1.031 0-1.766.734T1.999 6.5v13q0 1.031.734 1.766T4.499 22h13q1.031 0 1.766-.734t.734-1.766v-1.969q0-.203.141-.344l1-1q.234-.234.547-.109t.313.453zM20.5 5L25 9.5 14.5 20H10v-4.5zm6.938 2.063L26.001 8.5l-4.5-4.5 1.437-1.437q.438-.438 1.062-.438t1.062.438l2.375 2.375q.438.438.438 1.062t-.438 1.062z"/></svg>