<svg xmlns="http://www.w3.org/2000/svg" width="24" height="28" viewBox="0 0 24 28"><path fill="currentColor" d="M19.5 2q1.859 0 3.18 1.32T24 6.5v15q0 1.859-1.32 3.18T19.5 26h-15q-1.859 0-3.18-1.32T0 21.5v-15q0-1.859 1.32-3.18T4.5 2h15zm.5 16.5v-6.813q-.484.547-1 .859-.531.344-2.07 1.328t-2.367 1.547q-1.531 1.078-2.562 1.078t-2.562-1.078q-.719-.5-2.211-1.445t-2.227-1.445q-.187-.125-.516-.422t-.484-.422V18.5q0 .625.438 1.062T5.501 20h13q.625 0 1.062-.438t.438-1.062zm0-8.953q0-.641-.43-1.094T18.5 8h-13q-.625 0-1.062.438T4 9.5q0 .578.477 1.195t1.055 1.008q.734.5 2.148 1.391t2.023 1.297l.266.18q.219.149.328.219t.328.203.367.203.336.148.352.117.32.039.32-.039.352-.117.336-.148.367-.203.328-.203.328-.219.266-.18l4.172-2.719q.547-.359 1.039-.977T20 9.547z"/></svg>