<svg xmlns="http://www.w3.org/2000/svg" width="24" height="28" viewBox="0 0 24 28"><path fill="currentColor" d="M22.937 5.938q.438.438.75 1.188T24 8.501v18q0 .625-.438 1.062t-1.062.438h-21q-.625 0-1.062-.438T0 26.501v-25Q0 .876.438.439T1.5.001h14q.625 0 1.375.313t1.188.75zM16 2.125V8h5.875q-.156-.453-.344-.641L16.64 2.468q-.187-.187-.641-.344zM22 26V10h-6.5q-.625 0-1.062-.438T14 8.5V2H2v24h20zM6 12.5q0-.219.141-.359T6.5 12h11q.219 0 .359.141T18 12.5v1q0 .219-.141.359T17.5 14h-11q-.219 0-.359-.141T6 13.5v-1zM17.5 16q.219 0 .359.141T18 16.5v1q0 .219-.141.359T17.5 18h-11q-.219 0-.359-.141T6 17.5v-1q0-.219.141-.359T6.5 16h11zm0 4q.219 0 .359.141T18 20.5v1q0 .219-.141.359T17.5 22h-11q-.219 0-.359-.141T6 21.5v-1q0-.219.141-.359T6.5 20h11z"/></svg>