<svg xmlns="http://www.w3.org/2000/svg" width="30" height="28" viewBox="0 0 30 28"><path fill="currentColor" d="M27.828 14.547Q27.828 14 27 14H10q-.625 0-1.336.336t-1.117.82l-4.594 5.672q-.281.375-.281.625 0 .547.828.547h17q.625 0 1.344-.344t1.109-.828l4.594-5.672q.281-.344.281-.609zM10 12h12V9.5q0-.625-.438-1.062T20.5 8h-9q-.625 0-1.062-.438T10 6.5v-1q0-.625-.438-1.062T8.5 4h-5q-.625 0-1.062.438T2 5.5v13.328l4-4.922q.688-.828 1.813-1.367T10.001 12zm19.828 2.547q0 .969-.719 1.875L24.5 22.094q-.672.828-1.813 1.367T20.499 24h-17q-1.437 0-2.469-1.031T-.001 20.5v-15q0-1.437 1.031-2.469T3.499 2h5q1.437 0 2.469 1.031T11.999 5.5V6h8.5q1.437 0 2.469 1.031T23.999 9.5V12h3q.844 0 1.547.383t1.047 1.102q.234.5.234 1.062z"/></svg>