<svg xmlns="http://www.w3.org/2000/svg" width="24" height="28" viewBox="0 0 24 28"><path fill="currentColor" d="M9.094 20.438q0 1.031-1.453 1.031-1.672 0-1.672-.984 0-1 1.531-1 1.594 0 1.594.953zm-.563-7.282q0 1.328-1.156 1.328-1.203 0-1.203-1.313 0-1.406 1.203-1.406.562 0 .859.398t.297.992zm2.594-1.172v-1.953q-1.219.453-2.109.453-.781-.453-1.719-.453-1.344 0-2.266.891t-.922 2.234q0 .781.461 1.594t1.148 1.047v.047q-.594.266-.594 1.328 0 .828.641 1.203v.047Q3.999 19 3.999 20.594q0 .703.313 1.227t.844.797 1.125.398 1.266.125q3.5 0 3.5-2.938 0-1.047-.75-1.547t-1.969-.719q-.422-.078-.805-.32T7.14 17q0-.688.766-.812 1.203-.234 1.906-1.094T10.515 13q0-.375-.156-.812.578-.141.766-.203zm.922 6.547h2.141q-.031-.422-.031-1.281v-6.047q0-.719.031-1.078h-2.141q.047.359.047 1.109v6.125q0 .781-.047 1.172zm7.953-.25V16.39q-.469.328-1.062.328-.828 0-.828-1.281v-3.516h.812q.141 0 .414.016t.414.016v-1.828h-1.641q0-1.281.047-1.594h-2.188q.063.375.063.859v.734h-.938v1.828q.562-.047.578-.047.047 0 .172.008t.187.008v.031h-.031v3.391q0 .578.039 1t.18.883.383.758.68.484 1.031.187q1 0 1.687-.375zM14.438 7.25q0-.562-.375-.992t-.938-.43-.945.422-.383 1q0 .562.391.977t.938.414.93-.422.383-.969zM24 6.5v15q0 1.859-1.32 3.18T19.5 26h-15q-1.859 0-3.18-1.32T0 21.5v-15q0-1.859 1.32-3.18T4.5 2h15q1.859 0 3.18 1.32T24 6.5z"/></svg>