<svg xmlns="http://www.w3.org/2000/svg" width="24" height="28" viewBox="0 0 24 28"><path fill="currentColor" d="M12 6q-.828 0-1.414.586T10 8v2h-.5V8.547q0-.75-.5-1.273t-1.25-.523q-.719 0-1.234.516T6 8.501v6.703l-.5-.469v-2.688q0-.75-.5-1.273t-1.25-.523q-.719 0-1.234.516T2 12.001v3.5q0 .734.547 1.281l4.844 4.625Q8 22.016 8 23.001q0 .406.297.703t.703.297h10q.406 0 .703-.297t.297-.703v-.391q0-.641.156-1.203l1.687-6.813q.156-.562.156-1.203V9.547q0-.75-.5-1.273t-1.25-.523q-.719 0-1.234.516t-.516 1.234v.5h-.5V8.048q0-.625-.391-1.133t-1-.633q-.219-.031-.359-.031-.719 0-1.234.516t-.516 1.234v2h-.5V8.095q0-.797-.508-1.398t-1.289-.68q-.078-.016-.203-.016zm0-2q1.313 0 2.328.781.891-.531 1.922-.531.922 0 1.734.422t1.344 1.188q.422-.109.922-.109 1.563 0 2.656 1.117T24 9.548v3.844q0 .797-.203 1.687l-1.703 6.813Q22 22.267 22 23.001q0 1.25-.875 2.125T19 26.001H9q-1.313 0-2.156-.914T6 22.86l-4.813-4.625q-1.188-1.141-1.188-2.734v-3.5q0-1.547 1.102-2.648t2.648-1.102q.172 0 .25.016.094-1.484 1.18-2.5t2.57-1.016q.812 0 1.531.328 1.125-1.078 2.719-1.078z"/></svg>