<svg xmlns="http://www.w3.org/2000/svg" width="24" height="28" viewBox="0 0 24 28"><path fill="currentColor" d="M20 25q0-.406-.297-.703T19 24t-.703.297T18 25t.297.703T19 26t.703-.297T20 25zm2-11.938q0-2.953-2.609-2.953-.406 0-.875.078-.25-.469-.82-.742t-1.148-.273-1.078.281q-.781-.828-1.859-.828-.391 0-.867.156t-.742.391V4q0-.812-.594-1.406T10.002 2q-.797 0-1.398.609T8.002 4v9q-.313 0-.758-.234t-.859-.516-1.062-.516-1.32-.234q-1.047 0-1.523.695T2.003 14q0 .375 2.172 1.406.688.375 1.016.578 1 .625 2.266 1.75 1.266 1.109 1.656 1.578.891 1.078.891 2.188v.5h10v-.5q0-1.125.5-2.609t1-3.023.5-2.805zm2-.078q0 2.078-1.078 5.031Q22 20.577 22 21.499v4.5q0 .828-.586 1.414T20 27.999H10q-.828 0-1.414-.586T8 25.999v-4.5q0-.156-.07-.336t-.219-.367-.281-.352-.352-.375-.336-.32-.336-.297-.266-.219q-1.156-1.016-2.016-1.563-.328-.203-.969-.516t-1.125-.578-.984-.633-.773-.859T0 13.998q0-1.953 1.047-3.227T4 9.498q1.062 0 2 .344V3.998q0-1.625 1.188-2.812T9.985-.002q1.641 0 2.828 1.18t1.188 2.82v2.641q.969.063 1.859.578.328-.047.672-.047 1.578 0 2.781.938 2.172-.016 3.43 1.328t1.258 3.547z"/></svg>