<svg xmlns="http://www.w3.org/2000/svg" width="28" height="28" viewBox="0 0 28 28"><path fill="currentColor" d="M21.5 22h.5V12h-.5q-.547 0-1.055-.187t-.977-.578-.781-.719-.766-.844q-.031-.047-.055-.07t-.063-.07-.07-.078q-1.125-1.266-1.75-2.266-.219-.344-.594-1.062-.016-.047-.164-.352t-.289-.562-.313-.555-.336-.477-.289-.18q-1.109 0-1.805.477T11.498 6q0 .672.234 1.32t.516 1.062.516.859.234.758h-9q-.781 0-1.391.602t-.609 1.398q0 .812.594 1.406t1.406.594H9.17q-.234.266-.391.742t-.156.867q0 1.078.828 1.859-.281.5-.281 1.078t.273 1.148.742.82q-.063.375-.063.875 0 1.328.758 1.969t2.117.641q1.313 0 2.859-.5t3.031-1 2.609-.5zm4.5-1q0-.406-.297-.703T25 20t-.703.297T24 21t.297.703T25 22t.703-.297T26 21zm2-9v10q0 .828-.586 1.414T26 24h-4.5q-.922 0-3.484.922Q15.047 26 13.063 26q-2.219 0-3.594-1.211T8.11 21.391l.016-.078q-.953-1.188-.953-2.781 0-.344.047-.672-.516-.891-.578-1.859H4.001q-1.641 0-2.82-1.188t-1.18-2.828q0-1.609 1.188-2.797T4.001 8h5.844q-.344-.938-.344-2 0-1.906 1.273-2.953T14.001 2q.594 0 1.086.273t.859.773.633.984.578 1.125.516.969q.547.859 1.563 2.016.031.047.219.266t.297.336.32.336.375.352.352.281.367.219.336.07h4.5q.828 0 1.414.586T28.002 12z"/></svg>