<svg xmlns="http://www.w3.org/2000/svg" width="28" height="28" viewBox="0 0 28 28"><path fill="currentColor" d="M16.766 26H14q-2.547 0-3.531-2.203-.359-.766-.359-1.594v-.078q-.969-.469-1.539-1.383t-.57-1.992q0-.594.078-.75H4.001q-1.656 0-2.828-1.172T.001 14t1.172-2.828T4.001 10h1.766l-.688-.266q-1.156-.438-1.867-1.461T2.501 6q0-1.656 1.172-2.828T6.501 2q.719 0 1.422.266L17.735 6h6.266q1.656 0 2.828 1.172T28.001 10v10.437q0 1.375-.844 2.461t-2.188 1.414l-5.297 1.328q-1.437.359-2.906.359zM16 14.891L13.578 16l-2.547 1.156q-.469.219-.75.648t-.281.945q0 .719.516 1.234t1.234.516q.406 0 .719-.156l5.281-2.406q-.766-.156-1.258-.781T16 15.75v-.859zm5 4.859q0-.719-.516-1.234T19.25 18q-.406 0-.719.156L14 20.219q-.438.203-.578.266t-.477.266-.461.367-.25.453-.125.633q0 .781.492 1.281t1.273.5q.313 0 .594-.141l5.5-2.5q.469-.219.75-.648t.281-.945zM17.375 8L7.219 4.125Q6.844 4 6.5 4q-.828 0-1.414.586T4.5 6q0 .625.352 1.141t.93.734L14.001 11v1h-10q-.828 0-1.414.586T2.001 14t.586 1.414T4.001 16h8.359l3.641-1.656V11.25q0-.984.719-1.656L18.454 8h-1.078zm-.609 16q1.281 0 2.422-.297l5.297-1.328q.672-.172 1.094-.711t.422-1.227V10q0-.828-.586-1.414T24.001 8h-4.813l-2.125 1.969q-.562.516-.562 1.281v4.625q0 .719.516 1.203t1.234.484 1.234-.547.516-1.266v-3.25h.5v3.25q0 1.094-.891 1.781.812.125 1.352.758t.539 1.461q0 .656-.359 1.219t-.953.828l-4.844 2.203h1.422z"/></svg>