<svg xmlns="http://www.w3.org/2000/svg" width="28" height="28" viewBox="0 0 28 28"><path fill="currentColor" d="M28 14.641q0 .875-.109 1.625H9.907q0 2.281 1.711 3.82t4.023 1.539q1.547 0 2.898-.727t2.133-2.039h6.609q-.875 2.484-2.664 4.391t-4.18 2.945-5.016 1.039q-2.922 0-5.563-1.297-3.563 1.813-6.156 1.813-3.703 0-3.703-4.109 0-1.797.703-4.297.266-.938 1.703-3.578 3.109-5.625 7.422-9.469-2.875 1.234-6.672 5.531.984-4.281 4.43-7.023t7.836-2.742q.469 0 .703.016Q20.108.251 22.89.251q1 0 1.813.203t1.477.633 1.039 1.195.375 1.797q0 1.813-1.172 4.469Q28 11.392 28 14.642zm-1.094-10q0-1.297-.828-2.063t-2.141-.766q-1.687 0-3.969 1.094 1.891.734 3.477 2.055t2.664 3.055q.797-2.109.797-3.375zM2 23.969q0 1.344.758 2.07t2.102.727q1.797 0 4.156-1.297Q7.11 24.344 5.68 22.61t-2.148-3.828q-1.531 3.203-1.531 5.187zm7.875-11.141H21.25q-.078-2.219-1.766-3.703t-3.922-1.484q-2.25 0-3.93 1.484t-1.758 3.703z"/></svg>