<svg xmlns="http://www.w3.org/2000/svg" width="30" height="28" viewBox="0 0 30 28"><path fill="currentColor" d="M6.5 20q-1.031 0-1.766-.734T4 17.5v-11q0-1.031.734-1.766T6.5 4h17q1.031 0 1.766.734T26 6.5v11q0 1.031-.734 1.766T23.5 20h-17zM6 6.5v11q0 .203.148.352T6.5 18h17q.203 0 .352-.148T24 17.5v-11q0-.203-.148-.352T23.5 6h-17q-.203 0-.352.148T6 6.5zM27.5 21H30v1.5q0 .625-.734 1.062T27.5 24h-25q-1.031 0-1.766-.438T0 22.5V21h27.5zm-11.25 1.5q.25 0 .25-.25t-.25-.25h-2.5q-.25 0-.25.25t.25.25h2.5z"/></svg>