<svg xmlns="http://www.w3.org/2000/svg" width="22" height="28" viewBox="0 0 22 28"><path fill="currentColor" d="M21.938 21.641q0 1.828-1.234 3.063t-3.063 1.234q-2.109 0-3.672-1.563L1.828 12.25Q.062 10.453.062 8.016q0-2.484 1.719-4.219t4.203-1.734q2.469 0 4.266 1.766l9.453 9.469q.156.156.156.344 0 .25-.477.727t-.727.477q-.203 0-.359-.156L8.827 5.206Q7.593 4.003 5.999 4.003q-1.656 0-2.797 1.172T2.061 8.003q0 1.641 1.188 2.828l12.125 12.141q.984.984 2.266.984 1 0 1.656-.656t.656-1.656q0-1.281-.984-2.266L9.89 10.3q-.406-.375-.938-.375-.453 0-.75.297t-.297.75q0 .5.391.922l6.406 6.406q.156.156.156.344 0 .25-.484.734t-.734.484q-.187 0-.344-.156L6.89 13.3q-.984-.953-.984-2.328 0-1.281.891-2.172t2.172-.891q1.375 0 2.328.984l9.078 9.078q1.563 1.531 1.563 3.672z"/></svg>