<svg xmlns="http://www.w3.org/2000/svg" width="22" height="28" viewBox="0 0 22 28"><path fill="currentColor" d="M22 19.375q0 .422-.156 1.102t-.328 1.07q-.328.781-1.906 1.656-1.469.797-2.906.797-.422 0-.82-.055t-.898-.195-.742-.227-.867-.32-.766-.281q-1.531-.547-2.734-1.297-2-1.234-4.133-3.367t-3.367-4.133q-.75-1.203-1.297-2.734-.047-.141-.281-.766t-.32-.867-.227-.742-.195-.898-.055-.82q0-1.437.797-2.906.875-1.578 1.656-1.906.391-.172 1.07-.328t1.102-.156q.219 0 .328.047.281.094.828 1.188.172.297.469.844t.547.992.484.836q.047.063.273.391t.336.555.109.445q0 .313-.445.781t-.969.859-.969.828-.445.719q0 .141.078.352t.133.32.219.375.18.297q1.188 2.141 2.719 3.672t3.672 2.719q.031.016.297.18t.375.219.32.133.352.078q.281 0 .719-.445t.828-.969.859-.969.781-.445q.219 0 .445.109t.555.336.391.273q.391.234.836.484t.992.547.844.469q1.094.547 1.188.828.047.109.047.328z"/></svg>