<svg xmlns="http://www.w3.org/2000/svg" width="17" height="28" viewBox="0 0 17 28"><path fill="currentColor" d="M11 19.625v3.75q0 .25-.187.438t-.438.187h-3.75q-.25 0-.438-.187T6 23.375v-3.75q0-.25.187-.438T6.625 19h3.75q.25 0 .438.187t.187.438zm4.937-9.375q0 .844-.242 1.578t-.547 1.195-.859.93-.898.68-.953.555q-.641.359-1.07 1.016t-.43 1.047q0 .266-.187.508t-.438.242h-3.75q-.234 0-.398-.289t-.164-.586v-.703q0-1.297 1.016-2.445t2.234-1.695q.922-.422 1.313-.875t.391-1.188q0-.656-.727-1.156t-1.68-.5q-1.016 0-1.687.453-.547.391-1.672 1.797-.203.25-.484.25-.187 0-.391-.125L1.752 8.986q-.203-.156-.242-.391t.086-.438q2.5-4.156 7.25-4.156 1.25 0 2.516.484t2.281 1.297 1.656 1.992.641 2.477z"/></svg>