<svg xmlns="http://www.w3.org/2000/svg" width="30" height="28" viewBox="0 0 30 28"><path fill="currentColor" d="M20 23.5q0 .203-.148.352T19.5 24h-15q-.125 0-.211-.031t-.141-.109-.086-.125-.047-.18-.016-.18V14h-3q-.406 0-.703-.297T-.001 13q0-.375.234-.641l5-6q.297-.344.766-.344t.766.344l5 6q.234.266.234.641 0 .406-.297.703t-.703.297h-3v6h9q.25 0 .391.172l2.5 3q.109.172.109.328zM30 17q0 .375-.234.641l-5 6Q24.453 24 24 24t-.766-.359l-5-6Q18 17.375 18 17q0-.406.297-.703T19 16h3v-6h-9q-.25 0-.391-.187l-2.5-3Q10 6.672 10 6.5q0-.203.148-.352T10.5 6h15q.125 0 .211.031t.141.109.086.125.047.18.016.18V16h3q.406 0 .703.297t.297.703z"/></svg>