<svg xmlns="http://www.w3.org/2000/svg" width="24" height="28" viewBox="0 0 24 28"><path fill="currentColor" d="M24 14q0 2.438-.953 4.656t-2.562 3.828-3.828 2.562-4.656.953q-2.688 0-5.109-1.133t-4.125-3.195q-.109-.156-.102-.352t.133-.32l2.141-2.156q.156-.141.391-.141.25.031.359.187 1.141 1.484 2.797 2.297t3.516.812q1.625 0 3.102-.633t2.555-1.711 1.711-2.555.633-3.102-.633-3.102-1.711-2.555-2.555-1.711-3.102-.633q-1.531 0-2.938.555t-2.5 1.586l2.141 2.156q.484.469.219 1.078-.266.625-.922.625h-7q-.406 0-.703-.297t-.297-.703v-7q0-.656.625-.922.609-.266 1.078.219l2.031 2.016q1.672-1.578 3.82-2.445t4.445-.867q2.438 0 4.656.953t3.828 2.562 2.562 3.828.953 4.656z"/></svg>