<svg xmlns="http://www.w3.org/2000/svg" width="28" height="28" viewBox="0 0 28 28"><path fill="currentColor" d="M14.828 13.953q0 .406-.258.703t-.648.297q-.406 0-.703-.258t-.297-.648q0-.406.266-.703t.656-.297.688.258.297.648zm.234.906l5.469-9.078q-.141.125-1.055.977t-1.961 1.82-2.133 1.984-1.828 1.727-.789.805l-5.453 9.063q.109-.109 1.047-.969t1.969-1.82 2.125-1.984 1.828-1.734.781-.789zM25.172 14q0 3.141-1.625 5.797l-.266-.172q-.219-.141-.414-.258t-.258-.117q-.203 0-.203.203 0 .156.922.688-1.156 1.75-2.883 2.977t-3.773 1.727l-.25-1.047q-.016-.156-.234-.156-.078 0-.125.086t-.031.148l.25 1.062q-1.125.234-2.281.234-3.109 0-5.812-1.641.016-.031.203-.32t.336-.523.148-.297q0-.203-.203-.203-.094 0-.266.227t-.352.539-.211.359q-1.766-1.172-3-2.93t-1.719-3.82l1.078-.234q.156-.047.156-.234 0-.078-.086-.125t-.164-.031l-1.062.234q-.219-1.125-.219-2.172 0-3.219 1.703-5.922.031.016.289.187t.469.297.273.125q.203 0 .203-.187 0-.094-.195-.242t-.508-.336l-.313-.187q1.203-1.75 2.953-2.953t3.813-1.672l.234 1.047q.031.156.234.156.078 0 .125-.086t.031-.164l-.234-1.031q1.109-.203 2.094-.203 3.187 0 5.922 1.703-.609.875-.609 1.016 0 .203.187.203.172 0 .75-1 1.734 1.172 2.93 2.906t1.68 3.766l-.875.187q-.156.031-.156.25 0 .078.086.125t.148.031l.891-.203q.219 1.125.219 2.188zm1.328 0q0-2.547-.992-4.859t-2.664-3.984-3.984-2.664-4.859-.992-4.859.992-3.984 2.664-2.664 3.984T1.502 14t.992 4.859 2.664 3.984 3.984 2.664 4.859.992 4.859-.992 3.984-2.664 2.664-3.984T26.5 14zm1.5 0q0 2.844-1.109 5.437t-2.984 4.469-4.469 2.984-5.437 1.109-5.437-1.109-4.469-2.984-2.984-4.469T.002 14t1.109-5.437 2.984-4.469T8.564 1.11 14.001.001t5.437 1.109 4.469 2.984 2.984 4.469T28 14z"/></svg>