<svg xmlns="http://www.w3.org/2000/svg" width="26" height="28" viewBox="0 0 26 28"><path fill="currentColor" d="M10 24q0 .812-.594 1.406T8 26t-1.406-.594T6 24t.594-1.406T8 22t1.406.594T10 24zm14 0q0 .812-.594 1.406T22 26t-1.406-.594T20 24t.594-1.406T22 22t1.406.594T24 24zm2-17v8q0 .375-.258.664t-.633.336L8.797 17.906Q9 18.844 9 19q0 .25-.375 1H23q.406 0 .703.297T24 21t-.297.703T23 22H7q-.406 0-.703-.297T6 21q0-.172.125-.492t.25-.562.336-.625.242-.461L4.187 6.001H1q-.406 0-.703-.297T0 5.001t.297-.703T1 4.001h4q.25 0 .445.102t.305.242.203.383.125.406.086.461.07.406H25q.406 0 .703.297t.297.703z"/></svg>