<svg xmlns="http://www.w3.org/2000/svg" width="26" height="28" viewBox="0 0 26 28"><path fill="currentColor" d="M23.734 12.125q.969 0 1.617.633t.648 1.586q0 1.516-1.453 2.031l-2.688.922.875 2.609q.109.328.109.734 0 .922-.656 1.594t-1.578.672q-.734 0-1.336-.422t-.836-1.125l-.859-2.578-4.844 1.656.859 2.562q.125.375.125.734 0 .922-.656 1.594t-1.594.672q-.734 0-1.328-.422t-.828-1.125l-.859-2.547-2.391.828q-.453.141-.781.141-.953 0-1.586-.625t-.633-1.578q0-.734.43-1.328t1.117-.828l2.438-.828-1.641-4.891-2.438.844q-.406.125-.75.125-.938 0-1.578-.633t-.641-1.57q0-.734.43-1.328t1.117-.828l2.453-.828-.828-2.484q-.125-.375-.125-.734 0-.938.656-1.602t1.594-.664q.734 0 1.328.422t.828 1.125l.844 2.5L13.139 5.5 12.295 3q-.125-.375-.125-.734 0-.922.664-1.594T14.42 0q.734 0 1.336.43t.836 1.117l.828 2.516 2.531-.859q.328-.094.672-.094.938 0 1.602.617t.664 1.539q0 .703-.469 1.273t-1.156.805l-2.453.844 1.641 4.937 2.562-.875q.375-.125.719-.125zm-12.406 4.094l4.844-1.641-1.641-4.922-4.844 1.672z"/></svg>