<svg xmlns="http://www.w3.org/2000/svg" width="28" height="28" viewBox="0 0 28 28"><path fill="currentColor" d="M8.219 21.781q0 .828-.586 1.414t-1.414.586q-.812 0-1.406-.594t-.594-1.406q0-.828.586-1.414t1.414-.586 1.414.586.586 1.414zM16 25q0 .828-.586 1.414T14 27t-1.414-.586T12 25t.586-1.414T14 23t1.414.586T16 25zM5 14q0 .828-.586 1.414T3 16t-1.414-.586T1 14t.586-1.414T3 12t1.414.586T5 14zm18.781 7.781q0 .812-.594 1.406t-1.406.594q-.828 0-1.414-.586t-.586-1.414.586-1.414 1.414-.586 1.414.586.586 1.414zM8.719 6.219q0 1.031-.734 1.766t-1.766.734-1.766-.734-.734-1.766.734-1.766 1.766-.734 1.766.734.734 1.766zM27 14q0 .828-.586 1.414T25 16t-1.414-.586T23 14t.586-1.414T25 12t1.414.586T27 14zM17 3q0 1.25-.875 2.125T14 6t-2.125-.875T11 3t.875-2.125T14 0t2.125.875T17 3zm8.281 3.219q0 1.453-1.031 2.477t-2.469 1.023q-1.453 0-2.477-1.023t-1.023-2.477q0-1.437 1.023-2.469t2.477-1.031q1.437 0 2.469 1.031t1.031 2.469z"/></svg>