<svg xmlns="http://www.w3.org/2000/svg" width="26" height="28" viewBox="0 0 26 28"><path fill="currentColor" d="M17.766 15.687l4.781-4.641-6.594-.969L13 4.108l-2.953 5.969-6.594.969 4.781 4.641-1.141 6.578 5.906-3.109 5.891 3.109zM26 10.109q0 .344-.406.75l-5.672 5.531 1.344 7.812q.016.109.016.313 0 .781-.641.781-.297 0-.625-.187L13 21.422l-7.016 3.687q-.344.187-.625.187-.328 0-.492-.227t-.164-.555q0-.094.031-.313l1.344-7.812L.39 10.858q-.391-.422-.391-.75 0-.578.875-.719l7.844-1.141 3.516-7.109q.297-.641.766-.641t.766.641l3.516 7.109 7.844 1.141q.875.141.875.719z"/></svg>