<svg xmlns="http://www.w3.org/2000/svg" width="26" height="28" viewBox="0 0 26 28"><path fill="currentColor" d="M18.531 14.953l4.016-3.906-6.594-.969-.469-.938L13 4.109v15.047l.922.484 4.969 2.625-.938-5.547-.187-1.031zm7.063-4.094l-5.672 5.531 1.344 7.812q.078.516-.094.805t-.531.289q-.266 0-.625-.187L13 21.422l-7.016 3.687q-.359.187-.625.187-.359 0-.531-.289t-.094-.805l1.344-7.812L.39 10.859q-.5-.5-.359-.93t.844-.539l7.844-1.141 3.516-7.109q.313-.641.766-.641.438 0 .766.641l3.516 7.109 7.844 1.141q.703.109.844.539t-.375.93z"/></svg>