<svg xmlns="http://www.w3.org/2000/svg" width="24" height="28" viewBox="0 0 24 28"><path fill="currentColor" d="M4 7q0-.406-.297-.703T3 6t-.703.297T2 7t.297.703T3 8t.703-.297T4 7zm18 9q0-.547-.336-1.266T20.828 14q.234-.266.391-.742t.156-.867q0-1.078-.828-1.859.281-.5.281-1.078t-.273-1.148-.742-.82q.078-.469.078-.875 0-1.328-.766-1.969T17 4.001h-2q-2.047 0-5.344 1.141-.078.031-.453.164t-.555.195-.547.18-.594.172-.516.102-.492.047h-.5v10h.5q.25 0 .555.141t.625.422.602.555.625.688.539.664.492.641.359.469q.859 1.062 1.203 1.422.641.672.93 1.711t.477 1.961.594 1.328q1.5 0 2-.734t.5-2.266q0-.922-.75-2.508t-.75-2.492H20q.781 0 1.391-.602T22 16.004zm2 .016q0 1.609-1.188 2.797T20 20.001h-2.75q.75 1.547.75 3 0 1.844-.547 2.906-.547 1.078-1.594 1.586t-2.359.508q-.797 0-1.406-.578-.531-.516-.844-1.281t-.398-1.414-.273-1.32-.484-1q-.75-.781-1.672-1.984-1.578-2.047-2.141-2.422H2.001q-.828 0-1.414-.586t-.586-1.414v-10q0-.828.586-1.414t1.414-.586h4.5q.344 0 2.156-.625 2-.688 3.484-1.031t3.125-.344h1.75q2.188 0 3.539 1.234t1.336 3.375v.078q.938 1.203.938 2.781 0 .344-.047.672.594 1.047.594 2.25 0 .562-.141 1.078.766 1.156.766 2.547z"/></svg>