<svg xmlns="http://www.w3.org/2000/svg" width="25" height="28" viewBox="0 0 25 28"><path fill="currentColor" d="M4 21q0-.406-.297-.703T3 20q-.422 0-.711.297T2 21q0 .422.289.711T3 22q.406 0 .703-.289T4 21zm2.5-8v10q0 .406-.297.703T5.5 24H1q-.406 0-.703-.297T0 23V13q0-.406.297-.703T1 12h4.5q.406 0 .703.297T6.5 13zM25 13q0 1.344-.859 2.328.234.688.234 1.188.047 1.188-.672 2.141.266.875 0 1.828-.234.891-.844 1.469.141 1.75-.766 2.828-1 1.188-3.078 1.219h-2.016q-1.031 0-2.25-.242t-1.898-.453-1.883-.617q-1.922-.672-2.469-.688-.406-.016-.703-.305t-.297-.695V12.985q0-.391.281-.68t.672-.32q.375-.031 1.188-.922t1.578-1.891q1.062-1.359 1.578-1.875.281-.281.484-.75t.273-.758.211-.945q.109-.609.195-.953t.305-.812.531-.781q.297-.297.703-.297.719 0 1.289.164t.938.406.625.633.375.703.187.781.078.703.008.609q0 .594-.148 1.188t-.297.938-.43.875q-.047.094-.156.281t-.172.344-.125.375h4.328q1.219 0 2.109.891t.891 2.109z"/></svg>