<svg xmlns="http://www.w3.org/2000/svg" width="24" height="28" viewBox="0 0 24 28"><path fill="currentColor" d="M17.141 16.859L14.86 19.14q-.156.156-.359.156t-.359-.156l-2.141-2.141L9.86 19.14q-.156.156-.359.156t-.359-.156l-2.281-2.281q-.156-.156-.156-.359t.156-.359L9.002 14l-2.141-2.141q-.156-.156-.156-.359t.156-.359L9.142 8.86q.156-.156.359-.156t.359.156l2.141 2.141 2.141-2.141q.156-.156.359-.156t.359.156l2.281 2.281q.156.156.156.359t-.156.359L15 14l2.141 2.141q.156.156.156.359t-.156.359zM20.5 14q0-2.312-1.141-4.266T16.265 6.64t-4.266-1.141T7.733 6.64 4.639 9.734 3.498 14t1.141 4.266 3.094 3.094 4.266 1.141 4.266-1.141 3.094-3.094T20.5 14zm3.5 0q0 3.266-1.609 6.023t-4.367 4.367-6.023 1.609-6.023-1.609-4.367-4.367T.002 14t1.609-6.023T5.978 3.61t6.023-1.609 6.023 1.609 4.367 4.367T24 14z"/></svg>