<svg xmlns="http://www.w3.org/2000/svg" width="24" height="28" viewBox="0 0 24 28"><path fill="currentColor" d="M17.953 17.531q0-.406-.297-.703L14.828 14l2.828-2.828q.297-.297.297-.703 0-.422-.297-.719L16.25 8.344q-.297-.297-.719-.297-.406 0-.703.297L12 11.172 9.172 8.344q-.297-.297-.703-.297-.422 0-.719.297L6.344 9.75q-.297.297-.297.719 0 .406.297.703L9.172 14l-2.828 2.828q-.297.297-.297.703 0 .422.297.719l1.406 1.406q.297.297.719.297.406 0 .703-.297L12 16.828l2.828 2.828q.297.297.703.297.422 0 .719-.297l1.406-1.406q.297-.297.297-.719zM24 14q0 3.266-1.609 6.023t-4.367 4.367-6.023 1.609-6.023-1.609-4.367-4.367T.002 14t1.609-6.023T5.978 3.61t6.023-1.609 6.023 1.609 4.367 4.367T24 14z"/></svg>