<svg xmlns="http://www.w3.org/2000/svg" width="32" height="28" viewBox="0 0 32 28"><path fill="currentColor" d="M0 14q0-2.031.797-3.883T2.93 6.93t3.187-2.133T10 4h12q2.031 0 3.883.797T29.07 6.93t2.133 3.187T32 14t-.797 3.883-2.133 3.187-3.187 2.133T22 24H10q-2.031 0-3.883-.797T2.93 21.07.797 17.883 0 14zm22 8q1.625 0 3.102-.633t2.555-1.711 1.711-2.555.633-3.102-.633-3.102-1.711-2.555-2.555-1.711T22 5.998t-3.102.633-2.555 1.711-1.711 2.555-.633 3.102.633 3.102 1.711 2.555 2.555 1.711T22 22z"/></svg>