<svg xmlns="http://www.w3.org/2000/svg" width="22" height="28" viewBox="0 0 22 28"><path fill="currentColor" d="M22 21.953q0 1.875-1.141 2.961T17.828 26H4.172q-1.891 0-3.031-1.086T0 21.953q0-.828.055-1.617t.219-1.703.414-1.695.672-1.523.969-1.266 1.336-.836T5.407 13q.141 0 .656.336t1.164.75 1.687.75 2.086.336 2.086-.336 1.687-.75 1.164-.75.656-.336q.953 0 1.742.313t1.336.836.969 1.266.672 1.523.414 1.695.219 1.703.055 1.617zM17 8q0 2.484-1.758 4.242T11 14t-4.242-1.758T5 8t1.758-4.242T11 2t4.242 1.758T17 8z"/></svg>