<svg xmlns="http://www.w3.org/2000/svg" width="379.588" height="84.04" viewBox="0 0 379.588 84.04"><path fill="#FFF" d="M371.733 84.039v-8.887h1.788l2.134 6.608 2.158-6.608h1.775v8.887h-1.331v-6.68l-2.134 6.68h-1.008l-2.147-6.68v6.68zm-4.825 0v-7.58h-2.435v-1.307h6.248v1.307h-2.434v7.58zm-11.668.001h4.028L289.143 2.975A8.608 8.608 0 0 0 282.635 0h-13.764v84.04h13.724V67.594h44.75l5.282 6.106a29.904 29.904 0 0 0 22.613 10.34m-72.645-28.354V15.864l34.448 39.822h-34.448zm-80.573 10.413V0h56.479v12.816h-42.757v22.682h42.757v12.249h-42.757v17.95a5.98 5.98 0 0 0 5.979 5.98H258.5v12.361h-38.54c-9.906.001-17.938-8.031-17.938-17.939m-77.163 0V0h27.56c23.703 0 43.437 8.959 43.437 41.962 0 32.437-21.208 42.078-45.025 42.078h-8.032c-9.908 0-17.94-8.033-17.94-17.941m13.724-.402a5.979 5.979 0 0 0 5.98 5.98h8.31c18.373 0 28.92-8.166 28.92-29.715 0-21.434-10.094-29.146-30.168-29.146h-13.042v52.881zM100.767 0h13.724v84.039h-13.724zM76.673 68.175L26.641 10.339A29.898 29.898 0 0 0 4.028.001H0l70.126 81.063a8.604 8.604 0 0 0 6.507 2.975h13.764V.001H76.673v68.174z"/></svg>