<svg xmlns="http://www.w3.org/2000/svg" width="28" height="28" viewBox="0 0 28 28"><path fill="currentColor" d="M1.984 14q0-2.547 1.047-4.891l5.734 15.703q-3.063-1.484-4.922-4.391t-1.859-6.422zm20.125-.609q0 .297-.039.602t-.156.773-.18.688-.273.922-.273.906l-1.188 4-4.344-12.906q.719-.047 1.375-.125.297-.031.406-.289t-.039-.484-.445-.211l-3.203.156q-1.172-.016-3.156-.156-.187-.016-.32.078t-.18.234-.023.289.141.258.305.125l1.25.125 1.875 5.125-2.625 7.875-4.375-13q.719-.047 1.375-.125.297-.031.406-.289t-.039-.484-.445-.211l-3.203.156q-.109 0-.359-.008t-.406-.008q1.641-2.5 4.289-3.961t5.742-1.461q2.297 0 4.383.828t3.727 2.328h-.156q-.859 0-1.437.633t-.578 1.492q0 .187.031.375t.063.336.125.359.141.328.187.352.195.328.227.375.219.359q.984 1.672.984 3.313zm-7.906 1.656l3.703 10.109q.016.094.078.172-1.969.688-3.984.688-1.75 0-3.391-.5zm10.328-6.813q1.484 2.719 1.484 5.766 0 3.266-1.625 6.023t-4.359 4.352l3.672-10.594q.922-2.641.922-4.312 0-.656-.094-1.234zM14 0q2.844 0 5.437 1.109t4.469 2.984 2.984 4.469 1.109 5.437-1.109 5.437-2.984 4.469-4.469 2.984T14 27.998t-5.437-1.109-4.469-2.984-2.984-4.469-1.109-5.437T1.11 8.562t2.984-4.469 4.469-2.984T14 0zm0 27.359q2.703 0 5.18-1.062t4.266-2.852 2.852-4.266 1.062-5.18-1.062-5.18-2.852-4.266-4.266-2.852T14 .639 8.82 1.701 4.554 4.553 1.702 8.819.64 13.999t1.062 5.18 2.852 4.266 4.266 2.852T14 27.359z"/></svg>