<svg xmlns="http://www.w3.org/2000/svg" width="26" height="28" viewBox="0 0 26 28"><path fill="currentColor" d="M2 26h22V10H2v16zM8 7V2.5q0-.219-.141-.359T7.5 2h-1q-.219 0-.359.141T6 2.5V7q0 .219.141.359T6.5 7.5h1q.219 0 .359-.141T8 7zm12 0V2.5q0-.219-.141-.359T19.5 2h-1q-.219 0-.359.141T18 2.5V7q0 .219.141.359t.359.141h1q.219 0 .359-.141T20 7zm6-1v20q0 .812-.594 1.406T24 28H2q-.812 0-1.406-.594T0 26V6q0-.812.594-1.406T2 4h2V2.5q0-1.031.734-1.766T6.5 0h1q1.031 0 1.766.734T10 2.5V4h6V2.5q0-1.031.734-1.766T18.5 0h1q1.031 0 1.766.734T22 2.5V4h2q.812 0 1.406.594T26 6z"/></svg>