<svg xmlns="http://www.w3.org/2000/svg" width="24" height="28" viewBox="0 0 24 28"><path fill="currentColor" d="M20.062 11.469q0-.438-.281-.719l-1.422-1.406q-.297-.297-.703-.297t-.703.297l-6.375 6.359-3.531-3.531q-.297-.297-.703-.297t-.703.297l-1.422 1.406q-.281.281-.281.719 0 .422.281.703l5.656 5.656q.297.297.703.297.422 0 .719-.297l8.484-8.484q.281-.281.281-.703zM24 14q0 3.266-1.609 6.023t-4.367 4.367-6.023 1.609-6.023-1.609-4.367-4.367T.002 14t1.609-6.023T5.978 3.61t6.023-1.609 6.023 1.609 4.367 4.367T24 14z"/></svg>