<svg xmlns="http://www.w3.org/2000/svg" width="28" height="28" viewBox="0 0 28 28"><path fill="currentColor" d="M13.953 0Q17.703-.031 21 1.875q3.625 2.094 5.5 5.812l-11.594-.609q-2.5-.141-4.594 1.164t-2.891 3.586L3.109 5.203q2-2.484 4.859-3.836T13.952 0zM2.281 6.328l5.266 10.359q1.125 2.234 3.297 3.391t4.578.703l-3.594 7.047q-3.313-.516-6.016-2.461T1.554 20.43-.001 14q0-4.172 2.281-7.672zm24.781 2.641q.906 2.344.93 4.852t-.758 4.781-2.391 4.25-3.844 3.273q-3.594 2.078-7.781 1.859l6.328-9.734q1.375-2.047 1.289-4.539t-1.664-4.336zM14 9.281q1.953 0 3.336 1.383T18.719 14t-1.383 3.336T14 18.719t-3.336-1.383T9.281 14t1.383-3.336T14 9.281z"/></svg>