<svg xmlns="http://www.w3.org/2000/svg" width="30" height="28" viewBox="0 0 30 28"><path fill="currentColor" d="M9.266 14q-2.531.078-4.141 2H3.031q-1.281 0-2.156-.633T0 13.515q0-5.516 1.937-5.516.094 0 .68.328t1.523.664 1.859.336q1.047 0 2.078-.359-.078.578-.078 1.031 0 2.172 1.266 4zM26 23.953q0 1.875-1.141 2.961T21.828 28H8.172q-1.891 0-3.031-1.086T4 23.953q0-.828.055-1.617t.219-1.703.414-1.695.672-1.523.969-1.266 1.336-.836T9.407 15q.156 0 .672.336t1.141.75 1.672.75 2.109.336 2.109-.336 1.672-.75 1.141-.75.672-.336q.953 0 1.742.313t1.336.836.969 1.266.672 1.523.414 1.695.219 1.703.055 1.617zM10 4q0 1.656-1.172 2.828T6 8 3.172 6.828 2 4t1.172-2.828T6 0t2.828 1.172T10 4zm11 6q0 2.484-1.758 4.242T15 16t-4.242-1.758T9 10t1.758-4.242T15 4t4.242 1.758T21 10zm9 3.516q0 1.219-.875 1.852t-2.156.633h-2.094q-1.609-1.922-4.141-2 1.266-1.828 1.266-4 0-.453-.078-1.031 1.031.359 2.078.359.922 0 1.859-.336t1.523-.664.68-.328q1.937 0 1.937 5.516zM28 4q0 1.656-1.172 2.828T24 8t-2.828-1.172T20 4t1.172-2.828T24 0t2.828 1.172T28 4z"/></svg>