<svg xmlns="http://www.w3.org/2000/svg" width="20" height="28" viewBox="0 0 20 28"><path fill="currentColor" d="M19.969 2.953v1.141q0 .453-.289.953t-.664.5q-.781 0-.844.016-.406.094-.5.484-.047.172-.047 1v18q0 .391-.281.672t-.672.281h-1.687q-.391 0-.672-.281t-.281-.672V6.016h-2.234v19.031q0 .391-.273.672t-.68.281H9.158q-.406 0-.68-.281t-.273-.672v-7.75q-2.297-.187-3.828-.922-1.969-.906-3-2.797-1-1.828-1-4.047 0-2.594 1.375-4.469 1.375-1.844 3.266-2.484Q6.752 2 11.534 2h7.484q.391 0 .672.281t.281.672z"/></svg>