<svg xmlns="http://www.w3.org/2000/svg" width="26" height="28" viewBox="0 0 26 28"><path fill="currentColor" d="M12 5v11q0 1.625-.633 3.102t-1.711 2.555-2.555 1.711-3.102.633h-1q-.406 0-.703-.297t-.297-.703v-2q0-.406.297-.703t.703-.297h1q1.656 0 2.828-1.172t1.172-2.828v-.5q0-.625-.438-1.062t-1.062-.438h-3.5q-1.25 0-2.125-.875t-.875-2.125v-6q0-1.25.875-2.125t2.125-.875h6q1.25 0 2.125.875t.875 2.125zm14 0v11q0 1.625-.633 3.102t-1.711 2.555-2.555 1.711-3.102.633h-1q-.406 0-.703-.297t-.297-.703v-2q0-.406.297-.703t.703-.297h1q1.656 0 2.828-1.172t1.172-2.828v-.5q0-.625-.438-1.062t-1.062-.438h-3.5q-1.25 0-2.125-.875t-.875-2.125v-6q0-1.25.875-2.125t2.125-.875h6q1.25 0 2.125.875t.875 2.125z"/></svg>