<svg xmlns="http://www.w3.org/2000/svg" width="30" height="28" viewBox="0 0 30 28"><path fill="currentColor" d="M7 7q0-.828-.586-1.414T5 5t-1.414.586T3 7t.586 1.414T5 9t1.414-.586T7 7zm16.672 9q0 .828-.578 1.406l-7.672 7.688q-.609.578-1.422.578-.828 0-1.406-.578L1.422 13.906q-.594-.578-1.008-1.578T0 10.5V4q0-.812.594-1.406T2 2h6.5q.828 0 1.828.414t1.594 1.008l11.172 11.156q.578.609.578 1.422zm6 0q0 .828-.578 1.406l-7.672 7.688q-.609.578-1.422.578-.562 0-.922-.219t-.828-.703l7.344-7.344q.578-.578.578-1.406 0-.812-.578-1.422L14.422 3.422q-.594-.594-1.594-1.008T11 2h3.5q.828 0 1.828.414t1.594 1.008l11.172 11.156q.578.609.578 1.422z"/></svg>