<?xml version="1.0" encoding="UTF-8"?>
<svg width="451px" height="144px" viewBox="0 0 451 144" version="1.1" xmlns="http://www.w3.org/2000/svg" xmlns:xlink="http://www.w3.org/1999/xlink">
    <!-- Generator: Sketch 40.3 (33839) - http://www.bohemiancoding.com/sketch -->
    <title>cox-media-group</title>
    <desc>Created with Sketch.</desc>
    <defs>
        <polygon id="path-1" points="0.478984659 143.94 303.663 143.94 303.663 0.396680078 0.478984659 0.396680078 0.478984659 143.94"></polygon>
    </defs>
    <g id="Page-1" stroke="none" stroke-width="1" fill="none" fill-rule="evenodd">
        <g id="cox-media-group">
            <g id="Group-4" transform="translate(147.000000, 0.000000)">
                <mask id="mask-2" fill="white">
                    <use xlink:href="#path-1"></use>
                </mask>
                <g id="Clip-2"></g>
                <path d="M302.47,37.564 C290.801,0.144 207.704,-9.417 124.258,10.685 C99.235,16.683 77.075,24.764 58.653,34.176 C74.615,27.023 92.86,20.824 112.964,15.93 C196.609,-4.172 279.91,6.169 291.753,44.315 C296.823,60.301 286.482,80.028 263.92,98.073 C293.61,78.322 308.093,55.408 302.47,37.564" id="Fill-1" fill="#AC2530" mask="url(#mask-2)"></path>
                <path d="M193.85,128.239 C191.416,128.617 189.158,129.168 186.144,129.718 C104.757,147.536 24.323,138.554 13.233,102.539 C8.159,86.228 15.302,68.409 32.216,51.92 C7.784,70.466 -3.868,91.473 1.958,110.22 C13.045,146.032 98.006,152.986 181.453,132.908 C191.216,130.675 200.425,128.038 209.085,125.053 C204.19,126.155 199.119,127.285 193.85,128.239" id="Fill-3" fill="#AC2530" mask="url(#mask-2)"></path>
            </g>
            <polyline id="Fill-5" fill="#26A7C7" points="289.176 94.86 247.992 94.86 247.992 39.07 288.597 39.07 288.597 48.983 258.508 48.983 258.508 60.979 284.51 60.979 284.51 70.616 258.508 70.616 258.508 84.922 289.176 84.922 289.176 94.86"></polyline>
            <path d="M34.676,95.739 C15.184,95.739 0,79.225 0,58.194 C0,37.162 15.184,20.649 34.676,20.649 C50.981,20.649 62.978,29.86 67.478,44.691 L52.671,44.691 C49.483,38.116 42.923,33.222 34.676,33.222 C22.868,33.222 13.682,44.691 13.682,58.194 C13.682,71.897 22.868,83.342 34.676,83.342 C42.923,83.342 49.483,78.272 52.671,71.697 L67.29,71.697 C62.789,86.352 50.607,95.739 34.676,95.739" id="Fill-6" fill="#1C4D70"></path>
            <path d="M138.75,58.093 C138.75,79.175 123.857,95.739 103.5,95.739 C82.953,95.739 68.06,79.175 68.06,58.093 C68.06,37.212 82.953,20.649 103.5,20.649 C123.857,20.649 138.75,37.212 138.75,58.093 L138.75,58.093 Z M124.798,58.093 C124.798,44.741 115.374,33.649 103.5,33.649 C91.435,33.649 81.82,44.741 81.82,58.093 C81.82,71.646 91.435,82.739 103.5,82.739 C115.374,82.739 124.798,71.646 124.798,58.093 L124.798,58.093 Z" id="Fill-7" fill="#1C4D70"></path>
            <path d="M315.479,108.663 L315.479,121.337 L312.866,121.337 L312.866,117.371 C311.185,120.033 308.224,121.715 304.511,121.715 C298.185,121.715 292.989,116.244 293.166,109.592 C293.166,102.967 298.185,97.471 304.511,97.471 C309.329,97.471 313.243,100.507 314.925,105.251 L311.939,105.251 C310.636,102.214 307.847,100.332 304.511,100.332 C299.665,100.332 295.952,104.497 295.778,109.592 C295.778,114.713 299.665,119.077 304.511,119.077 C309.329,119.077 312.317,115.289 312.866,111.499 L304.686,111.499 L304.686,108.663 L315.479,108.663" id="Fill-8" fill="#1C4D70"></path>
            <path d="M337.213,121.437 L334.399,121.437 L334.399,115.791 C334.399,114.26 334.024,112.202 330.461,112.202 L323.157,112.202 L322.956,121.437 L320.146,121.237 L320.321,98.073 L330.461,98.248 C335.154,98.248 337.963,101.084 337.963,105.226 C337.963,107.684 336.658,109.743 334.776,110.871 C336.281,111.825 337.213,113.331 337.213,115.791 L337.213,121.437 L337.213,121.437 Z M330.662,109.567 C333.095,109.567 335.154,107.862 335.154,105.226 C335.154,102.389 333.473,100.883 330.461,100.883 L323.157,100.883 L323.157,109.366 L330.662,109.567 L330.662,109.567 Z" id="Fill-9" fill="#1C4D70"></path>
            <path d="M363.663,109.743 C363.663,116.494 358.618,121.715 352.271,121.715 C345.92,121.715 340.874,116.494 340.874,109.743 C340.874,103.017 346.119,97.772 352.271,97.772 C358.618,97.772 363.663,103.017 363.663,109.743 L363.663,109.743 Z M360.878,109.743 C360.878,104.497 357.139,100.382 352.271,100.382 C347.603,100.382 343.688,104.497 343.688,109.743 C343.688,114.989 347.603,119.105 352.271,119.105 C356.938,119.105 360.878,114.989 360.878,109.743 L360.878,109.743 Z" id="Fill-10" fill="#1C4D70"></path>
            <path d="M376.138,119.205 C380.127,119.205 382.235,116.769 382.437,113.181 L382.437,98.349 L385.271,98.549 L385.271,113.181 C385.098,118.45 381.482,122.014 376.138,122.014 C370.79,121.839 367.177,118.249 367.177,113.181 L367.354,98.349 L370.039,98.349 L370.039,113.181 C370.039,116.568 372.324,119.205 376.138,119.205" id="Fill-11" fill="#1C4D70"></path>
            <path d="M392.828,121.715 L389.966,121.715 L389.966,98.65 L399.853,98.65 C404.621,98.65 407.483,101.461 407.483,105.602 C407.282,109.718 404.621,112.529 399.853,112.529 L392.828,112.529 L392.828,121.715 L392.828,121.715 Z M392.828,101.285 L392.828,109.893 L399.853,109.893 C402.538,109.893 404.621,108.588 404.621,105.602 C404.621,102.59 402.538,101.285 399.853,101.285 L392.828,101.285 L392.828,101.285 Z" id="Fill-12" fill="#1C4D70"></path>
            <path d="M313.646,94.86 L292.989,94.86 L292.989,39.07 L313.646,39.07 C329.257,39.07 338.843,49.811 338.843,66.952 C338.843,84.118 328.88,94.86 313.646,94.86 L313.646,94.86 Z M313.646,48.858 L303.683,48.858 L303.683,85.047 L313.646,85.047 C326.242,85.047 328.125,73.754 328.125,66.952 C328.125,58.671 325.693,48.858 313.646,48.858 L313.646,48.858 Z" id="Fill-13" fill="#26A7C7"></path>
            <polygon id="Fill-14" fill="#26A7C7" points="342.634 94.86 353.439 94.86 353.439 39.07 342.634 39.07"></polygon>
            <path d="M370.089,83.742 L366.3,94.86 L355.207,94.86 L374.756,39.07 L387.905,39.07 L407.483,94.86 L396.393,94.86 L392.3,83.742 L370.089,83.742 L370.089,83.742 Z M381.206,51.041 L373.603,73.829 L389.088,73.829 L381.206,51.041 L381.206,51.041 Z" id="Fill-15" fill="#26A7C7"></path>
            <polyline id="Fill-16" fill="#26A7C7" points="240.111 94.86 229.597 94.86 229.597 53.952 218.503 94.86 207.109 94.86 195.716 53.952 195.716 89.59 185.2 72.95 185.2 39.07 200.96 39.07 212.656 80.831 224.325 39.07 240.111 39.07 240.111 94.86"></polyline>
            <path d="M173.316,57.967 L173.316,57.792 C168.982,63.037 165.403,68.082 162.956,73.326 L175.575,94.86 L196.292,94.86 L173.316,57.967 L173.316,57.967 Z M195.539,22.606 L174.634,22.606 L162.58,43.186 L148.077,22.405 L127.358,22.405 L152.22,57.967 L127.547,94.659 L143.556,94.659 C147.699,75.209 167.288,57.039 176.704,52.547 L195.539,22.606 L195.539,22.606 Z" id="Fill-17" fill="#1C4D70"></path>
            <path d="M441.088,0.22 L441.088,1.375 L439.029,1.375 L439.029,8.101 L437.575,8.101 L437.575,1.375 L435.24,1.375 L435.24,0.22 L441.088,0.22 L441.088,0.22 Z M449.846,8.101 L448.669,8.101 L448.669,2.253 L446.333,8.101 L445.454,8.101 L443.421,2.253 L443.421,8.101 L441.941,8.101 L441.941,0.22 L443.697,0.22 L446.031,6.645 L448.09,0.22 L449.846,0.22 L449.846,8.101 L449.846,8.101 Z" id="Fill-18" fill="#1C4D70"></path>
        </g>
    </g>
</svg>