<svg xmlns="http://www.w3.org/2000/svg" width="24" height="28" viewBox="0 0 24 28"><path fill="currentColor" d="M12 12q3.703 0 6.922-.672T24 9.344V12q0 1.078-1.609 2t-4.375 1.461T12 16t-6.016-.539T1.609 14 0 12V9.344q1.859 1.313 5.078 1.984T12 12zm0 12q3.703 0 6.922-.672T24 21.344V24q0 1.078-1.609 2t-4.375 1.461T12 28t-6.016-.539T1.609 26 0 24v-2.656q1.859 1.313 5.078 1.984T12 24zm0-6q3.703 0 6.922-.672T24 15.344V18q0 1.078-1.609 2t-4.375 1.461T12 22t-6.016-.539T1.609 20 0 18v-2.656q1.859 1.312 5.078 1.984T12 18zm0-18q3.25 0 6.016.539T22.391 2 24 4v2q0 1.078-1.609 2t-4.375 1.461T12 10t-6.016-.539T1.609 8 0 6V4q0-1.078 1.609-2T5.984.539 12 0z"/></svg>