<svg xmlns="http://www.w3.org/2000/svg" width="24" height="28" viewBox="0 0 24 28"><path fill="currentColor" d="M16 21.5V19q0-.219-.141-.359T15.5 18.5H14v-8q0-.219-.141-.359T13.5 10h-5q-.219 0-.359.141T8 10.5V13q0 .219.141.359t.359.141H10v5H8.5q-.219 0-.359.141T8 19v2.5q0 .219.141.359T8.5 22h7q.219 0 .359-.141T16 21.5zm-2-14V5q0-.219-.141-.359T13.5 4.5h-3q-.219 0-.359.141T10 5v2.5q0 .219.141.359T10.5 8h3q.219 0 .359-.141T14 7.5zM24 14q0 3.266-1.609 6.023t-4.367 4.367-6.023 1.609-6.023-1.609-4.367-4.367T.002 14t1.609-6.023T5.978 3.61t6.023-1.609 6.023 1.609 4.367 4.367T24 14z"/></svg>