<svg xmlns="http://www.w3.org/2000/svg" width="24" height="28" viewBox="0 0 24 28"><path fill="currentColor" d="M15.391 15.219q.203 0 1.523.688t1.398.828q.031.078.031.234 0 .516-.266 1.188-.25.609-1.109 1.023t-1.594.414q-.891 0-2.969-.969-1.531-.703-2.656-1.844T7.437 13.89q-1.125-1.672-1.109-3.031v-.125q.047-1.422 1.156-2.469.375-.344.812-.344.094 0 .281.023t.297.023q.297 0 .414.102t.242.43q.125.313.516 1.375t.391 1.172q0 .328-.539.898t-.539.727q0 .109.078.234.531 1.141 1.594 2.141.875.828 2.359 1.578.187.109.344.109.234 0 .844-.758t.812-.758zM12.219 23.5q1.984 0 3.805-.781t3.133-2.094 2.094-3.133.781-3.805-.781-3.805-2.094-3.133-3.133-2.094-3.805-.781-3.805.781-3.133 2.094-2.094 3.133-.781 3.805q0 3.172 1.875 5.75l-1.234 3.641 3.781-1.203Q9.297 23.5 12.219 23.5zm0-21.594q2.391 0 4.57.938t3.758 2.516 2.516 3.758.938 4.57-.938 4.57-2.516 3.758-3.758 2.516-4.57.938q-3.047 0-5.703-1.469L0 26.095l2.125-6.328Q.438 16.986.438 13.689q0-2.391.938-4.57t2.516-3.758T7.65 2.845t4.57-.938z"/></svg>